<svg xmlns="http://www.w3.org/2000/svg" xmlns:xlink="http://www.w3.org/1999/xlink" width="500" zoomAndPan="magnify" viewBox="0 0 375 281.25" height="375" preserveAspectRatio="xMidYMid meet" version="1.0"><defs><g/><clipPath id="4c6dbc90bb"><path d="M 17.058594 15.015625 L 358 15.015625 L 358 207.253906 L 17.058594 207.253906 Z M 17.058594 15.015625 " clip-rule="nonzero"/></clipPath></defs><g clip-path="url(#4c6dbc90bb)"><path fill="#ffffff" d="M 341.984375 137.402344 C 342.886719 138.121094 343.777344 138.714844 344.542969 139.433594 C 345.820312 140.621094 347.066406 141.855469 348.253906 143.144531 C 349.566406 144.558594 350.808594 146.03125 352.066406 147.492188 C 352.441406 147.9375 352.761719 148.53125 352.488281 149.070312 C 352.226562 149.582031 351.632812 149.789062 351.003906 149.765625 C 350.867188 149.753906 350.730469 149.753906 350.59375 149.765625 C 350.160156 149.824219 349.578125 149.539062 349.382812 150.085938 C 349.316406 150.277344 349.769531 150.65625 350 150.941406 C 351.128906 152.355469 352.28125 153.761719 353.414062 155.1875 C 353.824219 155.703125 353.859375 156.296875 353.390625 156.761719 C 352.75 157.414062 352.636719 158.191406 352.523438 159.035156 C 352.351562 160.40625 352.007812 161.761719 351.734375 163.121094 C 351.710938 163.214844 351.722656 163.304688 351.710938 163.382812 C 351.621094 164.777344 351.460938 166.160156 351.449219 167.550781 C 351.414062 172.699219 351.449219 177.859375 351.425781 183.007812 C 351.425781 183.566406 351.667969 184.171875 351.1875 184.707031 C 351.085938 184.824219 351.289062 185.289062 351.449219 185.53125 C 352.71875 187.4375 353.253906 189.664062 354.292969 191.671875 C 355.058594 193.144531 355.800781 194.640625 356.542969 196.125 C 356.871094 196.773438 357.144531 197.449219 357.523438 198.066406 C 357.96875 198.785156 357.761719 199.558594 357.761719 200.300781 C 357.761719 200.746094 356.769531 201.191406 356.246094 201.078125 C 355.820312 200.988281 355.398438 200.871094 354.964844 200.828125 C 353.515625 200.667969 352.054688 200.679688 350.640625 200.277344 C 350.46875 200.234375 350.273438 200.269531 350.089844 200.269531 C 348.574219 200.289062 347.101562 200.027344 345.628906 199.730469 C 344.578125 199.527344 343.492188 199.558594 342.429688 199.421875 C 341.4375 199.296875 340.457031 199.082031 339.460938 198.933594 C 338.59375 198.808594 337.714844 198.714844 336.835938 198.601562 C 334.644531 198.328125 332.453125 198.132812 330.285156 197.746094 C 328.285156 197.390625 326.289062 197.140625 324.277344 196.910156 C 322.566406 196.71875 320.84375 196.523438 319.128906 196.351562 C 316.949219 196.136719 314.769531 195.976562 312.601562 195.78125 C 311.296875 195.667969 309.972656 195.769531 308.71875 195.519531 C 306.996094 195.175781 305.269531 195.484375 303.582031 195.269531 C 299.574219 194.742188 295.554688 195.109375 291.546875 195.027344 C 287.496094 194.960938 283.441406 194.824219 279.402344 195.085938 C 276.765625 195.257812 274.117188 195.015625 271.511719 195.347656 C 269.011719 195.667969 266.5 195.300781 264.035156 195.609375 C 261.535156 195.929688 259.023438 195.597656 256.558594 195.90625 C 254.832031 196.125 253.109375 195.894531 251.417969 196.167969 C 249.789062 196.433594 248.144531 196.179688 246.566406 196.453125 C 244.933594 196.742188 243.304688 196.453125 241.714844 196.71875 C 240.277344 196.957031 238.839844 196.820312 237.410156 196.980469 C 235.140625 197.230469 232.878906 197.449219 230.597656 197.527344 C 228.691406 197.597656 226.785156 197.800781 224.886719 198.074219 C 223.085938 198.339844 221.269531 198.488281 219.453125 198.648438 C 217.503906 198.804688 215.550781 198.988281 213.609375 199.21875 C 211.3125 199.480469 208.996094 199.664062 206.738281 200.257812 C 204.703125 200.804688 202.695312 201.398438 200.960938 202.628906 C 199.109375 203.945312 196.964844 204.558594 194.851562 205.210938 C 192.546875 205.917969 190.148438 205.90625 187.773438 205.746094 C 186.085938 205.632812 184.417969 205.140625 182.726562 204.972656 C 180.855469 204.789062 179.121094 204.183594 177.351562 203.613281 C 175.742188 203.097656 174.292969 202.289062 172.863281 201.464844 C 172.078125 201.019531 171.289062 200.691406 170.476562 200.574219 C 168.355469 200.277344 166.277344 199.824219 164.175781 199.457031 C 162.476562 199.160156 160.738281 199.113281 159.027344 198.863281 C 156.902344 198.554688 154.757812 198.511719 152.632812 198.257812 C 150.863281 198.054688 149.105469 198.203125 147.359375 198.042969 C 141.789062 197.539062 136.195312 197.609375 130.636719 197.847656 C 125.144531 198.074219 119.652344 197.800781 114.183594 198.109375 C 112.152344 198.222656 110.097656 198.074219 108.089844 198.371094 C 106.320312 198.636719 104.550781 198.371094 102.8125 198.648438 C 101.136719 198.910156 99.457031 198.660156 97.824219 198.921875 C 96.238281 199.183594 94.652344 198.933594 93.109375 199.195312 C 91.613281 199.445312 90.117188 199.21875 88.667969 199.46875 C 87.265625 199.707031 85.859375 199.492188 84.5 199.742188 C 83.1875 199.984375 81.886719 199.824219 80.609375 199.992188 C 78.484375 200.289062 76.339844 200.347656 74.203125 200.53125 C 72.433594 200.679688 70.675781 200.882812 68.90625 201.078125 C 67.320312 201.25 65.734375 201.398438 64.167969 201.636719 C 62.546875 201.898438 60.925781 202.070312 59.292969 202.207031 C 57.421875 202.355469 55.574219 202.769531 53.699219 202.996094 C 52.410156 203.15625 51.085938 203.066406 49.820312 203.316406 C 48.609375 203.554688 47.375 203.417969 46.164062 203.796875 C 45.253906 204.082031 44.226562 204.023438 43.253906 204.101562 C 42.101562 204.207031 40.914062 204.160156 39.785156 204.410156 C 38.242188 204.742188 36.65625 204.695312 35.136719 205.1875 C 34.394531 205.425781 33.5625 205.371094 32.773438 205.496094 C 31.050781 205.757812 29.328125 206.066406 27.589844 206.316406 C 26.667969 206.453125 25.730469 206.476562 24.804688 206.613281 C 23.8125 206.761719 22.84375 207.046875 21.859375 207.140625 C 20.808594 207.230469 19.738281 207.253906 18.6875 207.128906 C 17.613281 207.003906 17.292969 206.011719 17.851562 204.867188 C 18.230469 204.101562 18.617188 203.351562 19.019531 202.597656 C 20.207031 200.371094 21.371094 198.132812 22.601562 195.941406 C 23.550781 194.261719 24.453125 192.5625 24.863281 190.667969 C 24.988281 190.0625 25.207031 189.378906 25.035156 188.828125 C 24.632812 187.574219 24.953125 186.308594 24.78125 185.074219 C 24.441406 182.449219 24.761719 179.789062 24.464844 177.1875 C 24.109375 174.082031 24.394531 171 24.234375 167.90625 C 24.15625 166.375 24.257812 164.855469 24.03125 163.316406 C 23.8125 161.878906 24.132812 160.359375 24.257812 158.886719 C 24.28125 158.660156 24.542969 158.464844 24.703125 158.246094 C 25.902344 156.582031 27.113281 154.925781 28.300781 153.246094 C 28.367188 153.15625 28.289062 152.8125 28.242188 152.800781 C 27.761719 152.734375 27.476562 152.484375 27.558594 151.992188 C 27.625 151.523438 27.660156 150.988281 27.921875 150.632812 C 28.972656 149.21875 30.125 147.859375 31.222656 146.464844 C 32.773438 144.492188 34.203125 142.402344 35.855469 140.53125 C 37.570312 138.601562 38.78125 136.296875 40.664062 134.527344 C 40.902344 134.296875 40.902344 134.070312 40.480469 133.988281 C 39.542969 133.816406 38.609375 133.613281 37.671875 133.441406 C 36.828125 133.292969 35.984375 133.15625 35.21875 132.699219 C 34.304688 132.140625 34.214844 131.648438 34.933594 130.882812 C 36.269531 129.457031 37.558594 127.996094 38.949219 126.613281 C 40.753906 124.824219 42.671875 123.121094 44.476562 121.328125 C 46.085938 119.71875 47.582031 118.007812 49.179688 116.386719 C 50.355469 115.199219 51.632812 114.101562 52.855469 112.949219 C 53.027344 112.789062 53.09375 112.515625 53.210938 112.289062 C 52.992188 112.253906 52.789062 112.195312 52.570312 112.175781 C 50.527344 111.992188 48.484375 111.890625 46.453125 111.601562 C 43.734375 111.226562 41.015625 110.757812 38.324219 110.222656 C 36.929688 109.949219 35.546875 109.753906 34.132812 109.664062 C 33.480469 109.617188 32.75 109.34375 32.25 108.945312 C 31.65625 108.476562 31.859375 107.632812 32.054688 107.039062 C 32.59375 105.382812 33.265625 103.773438 33.917969 102.152344 C 34.839844 99.835938 36.050781 97.664062 37.511719 95.632812 C 38.253906 94.59375 39.019531 93.566406 39.851562 92.597656 C 41.417969 90.792969 43.015625 89.023438 44.625 87.253906 C 45.972656 85.78125 47.351562 84.332031 48.722656 82.882812 C 50.574219 80.929688 52.398438 78.964844 54.292969 77.046875 C 61.738281 69.492188 69.179688 61.945312 76.648438 54.421875 C 78.472656 52.585938 80.335938 50.757812 82.296875 49.070312 C 84.605469 47.070312 87.035156 45.210938 89.421875 43.292969 C 91.660156 41.5 93.875 39.664062 96.179688 37.9375 C 98.019531 36.570312 99.992188 35.359375 101.878906 34.046875 C 103.464844 32.9375 105.003906 33.203125 106.605469 33.976562 C 108.671875 34.984375 110.757812 35.929688 112.835938 36.910156 C 115.109375 37.984375 117.414062 38.988281 119.628906 40.175781 C 120.359375 40.574219 120.484375 40.300781 120.792969 39.8125 C 122.460938 37.140625 124.152344 34.480469 125.851562 31.832031 C 127.449219 29.34375 128.75 26.695312 129.984375 24.023438 C 130.953125 21.921875 131.992188 19.855469 132.210938 17.492188 C 132.257812 17.003906 132.496094 16.511719 132.691406 16.042969 C 133.066406 15.175781 133.855469 14.992188 134.5625 15.609375 C 135.988281 16.832031 137.449219 18.03125 138.820312 19.332031 C 140.578125 21 142.382812 22.664062 143.957031 24.503906 C 146.242188 27.152344 148.332031 29.949219 150.523438 32.675781 C 151.835938 34.308594 153.25 35.851562 154.507812 37.515625 C 156.367188 40.015625 158.296875 42.449219 160.136719 44.972656 C 162.191406 47.789062 164.210938 50.632812 166.128906 53.542969 C 167.554688 55.703125 168.902344 57.90625 170.226562 60.121094 C 171.8125 62.769531 173.421875 65.40625 174.894531 68.121094 C 176.300781 70.703125 177.542969 73.371094 178.835938 76.011719 C 180.832031 80.109375 182.488281 84.332031 184.15625 88.578125 C 185.617188 92.3125 186.746094 96.148438 188.171875 99.890625 C 188.628906 101.089844 188.753906 102.402344 189.074219 103.660156 C 189.144531 103.945312 189.339844 104.195312 189.476562 104.457031 C 189.613281 104.242188 189.773438 104.035156 189.898438 103.816406 C 190.21875 103.214844 190.492188 102.585938 190.855469 102.003906 C 192.273438 99.730469 193.640625 97.425781 195.160156 95.234375 C 196.757812 92.925781 198.515625 90.722656 200.21875 88.488281 C 201.976562 86.160156 203.894531 83.957031 205.972656 81.898438 C 208.949219 78.957031 211.863281 75.953125 214.863281 73.03125 C 217.308594 70.667969 219.820312 68.371094 222.34375 66.101562 C 224.304688 64.332031 226.292969 62.597656 228.347656 60.929688 C 230.640625 59.082031 233.027344 57.34375 235.355469 55.542969 C 238.828125 52.871094 242.652344 50.746094 246.316406 48.371094 C 251.226562 45.199219 256.5 42.746094 261.695312 40.140625 C 264.242188 38.863281 266.867188 37.757812 269.445312 36.535156 C 270.53125 36.019531 271.582031 35.4375 272.609375 34.835938 C 273.089844 34.546875 273.441406 34.605469 273.945312 34.835938 C 275.542969 35.554688 276.96875 36.476562 278.339844 37.574219 C 280.601562 39.390625 282.941406 41.113281 285.257812 42.859375 C 286.695312 43.945312 288.15625 44.984375 289.574219 46.089844 C 291.421875 47.527344 293.261719 49 295.0625 50.484375 C 295.964844 51.226562 296.824219 52.027344 297.691406 52.824219 C 299.21875 54.25 300.75 55.679688 302.257812 57.117188 C 304.539062 59.285156 306.835938 61.445312 309.0625 63.667969 C 310.511719 65.109375 311.902344 66.613281 313.261719 68.144531 C 314.894531 69.984375 316.480469 71.855469 318.046875 73.75 C 319.984375 76.113281 321.925781 78.476562 323.800781 80.882812 C 326.617188 84.492188 329.621094 87.960938 332.214844 91.75 C 334.132812 94.558594 336.21875 97.242188 338.023438 100.121094 C 339.382812 102.277344 340.421875 104.640625 341.5625 106.921875 C 341.972656 107.746094 341.09375 109.070312 340.125 109.148438 C 338.789062 109.261719 337.429688 109.273438 336.105469 109.445312 C 334.507812 109.652344 332.933594 109.992188 331.335938 110.257812 C 330.546875 110.382812 329.746094 110.425781 328.972656 110.542969 C 327.554688 110.746094 326.152344 111.101562 324.746094 111.285156 C 323.433594 111.457031 322.132812 111.660156 320.84375 111.921875 C 318.855469 112.324219 316.871094 112.769531 314.894531 113.222656 C 312.839844 113.691406 310.785156 114.171875 308.742188 114.6875 C 306.242188 115.3125 303.730469 115.894531 301.273438 116.660156 C 298.066406 117.664062 294.894531 118.785156 291.730469 119.9375 C 289.171875 120.871094 286.671875 121.933594 284.160156 122.984375 C 276.136719 126.328125 268.394531 130.289062 260.691406 134.296875 C 257.34375 136.03125 254.089844 137.9375 250.804688 139.765625 C 248.816406 140.871094 246.820312 141.945312 244.878906 143.121094 C 242.445312 144.59375 239.992188 146.054688 237.664062 147.6875 C 234.96875 149.570312 232.378906 151.613281 229.761719 153.625 C 227.59375 155.289062 225.4375 156.980469 223.3125 158.703125 C 221.921875 159.835938 220.617188 161.054688 219.238281 162.195312 C 217.980469 163.234375 216.667969 164.207031 215.390625 165.234375 C 214.660156 165.828125 213.953125 166.457031 213.253906 167.082031 C 211.886719 168.339844 210.527344 169.617188 209.167969 170.882812 C 206.347656 173.519531 203.484375 176.113281 200.71875 178.808594 C 198.699219 180.78125 196.804688 182.882812 194.851562 184.925781 C 194.761719 185.015625 194.738281 185.175781 194.679688 185.3125 C 194.839844 185.269531 195.011719 185.246094 195.148438 185.164062 C 197.019531 184.023438 199.054688 183.15625 200.789062 181.761719 C 202.570312 180.335938 204.429688 179.023438 206.257812 177.652344 C 208.152344 176.226562 210.035156 174.789062 211.929688 173.363281 C 213.402344 172.253906 214.875 171.136719 216.359375 170.050781 C 218.015625 168.828125 219.671875 167.609375 221.347656 166.445312 C 224.238281 164.433594 227.136719 162.449219 230.070312 160.496094 C 231.28125 159.6875 232.59375 159.035156 233.851562 158.292969 C 235.070312 157.574219 236.203125 156.625 237.515625 156.148438 C 239.296875 155.496094 240.90625 154.558594 242.59375 153.738281 C 246.695312 151.742188 250.871094 149.960938 255.128906 148.328125 C 259.820312 146.535156 264.539062 144.8125 269.34375 143.316406 C 272.734375 142.265625 276.113281 141.167969 279.5625 140.3125 C 281.730469 139.777344 283.863281 139.125 286.058594 138.679688 C 287.574219 138.371094 289.058594 137.90625 290.578125 137.597656 C 292.667969 137.175781 294.777344 136.84375 296.878906 136.476562 C 298.980469 136.113281 301.082031 135.691406 303.191406 135.394531 C 304.996094 135.132812 306.8125 135.039062 308.617188 134.8125 C 310.488281 134.570312 312.335938 134.242188 314.210938 134 C 315.453125 133.851562 316.722656 133.910156 317.953125 133.679688 C 319.300781 133.441406 320.707031 133.667969 322.019531 133.167969 C 322.222656 133.085938 322.476562 133.167969 322.703125 133.15625 C 324.277344 133.066406 325.855469 132.984375 327.417969 132.882812 C 328.296875 132.824219 329.1875 132.699219 330.066406 132.609375 C 330.945312 132.515625 331.835938 132.425781 332.714844 132.335938 C 332.808594 132.324219 332.945312 132.367188 332.988281 132.324219 C 333.789062 131.375 334.851562 131.855469 335.808594 131.796875 C 336.949219 131.730469 338.117188 131.820312 339.257812 131.773438 C 340.96875 131.71875 342.683594 131.605469 344.382812 131.5 C 344.507812 131.488281 344.621094 131.433594 344.75 131.386719 C 344.703125 131.226562 344.703125 131.019531 344.601562 130.917969 C 342.464844 128.863281 340.339844 126.785156 338.171875 124.777344 C 337.066406 123.75 335.878906 122.789062 334.691406 121.84375 C 333.171875 120.644531 331.628906 119.46875 330.078125 118.328125 C 328.503906 117.164062 326.894531 116.03125 325.285156 114.914062 C 324.472656 114.34375 323.617188 113.816406 322.804688 113.246094 C 322.441406 112.996094 322.179688 112.585938 322.542969 112.230469 C 322.78125 111.992188 323.308594 111.84375 323.628906 111.933594 C 324.234375 112.105469 324.828125 112.414062 325.339844 112.769531 C 328.136719 114.695312 330.933594 116.625 333.6875 118.625 C 335.957031 120.269531 338.148438 122.015625 340.171875 123.976562 C 341.960938 125.722656 343.8125 127.414062 345.605469 129.160156 C 346.082031 129.617188 346.496094 130.164062 346.871094 130.703125 C 347.257812 131.261719 346.917969 132.195312 346.359375 132.609375 C 345.660156 133.121094 344.839844 133.28125 344.0625 133.382812 C 342.464844 133.601562 340.832031 133.613281 339.210938 133.691406 C 338.890625 133.714844 338.558594 133.667969 338.261719 133.738281 C 338.023438 133.796875 337.828125 133.976562 337.613281 134.113281 C 337.785156 134.25 337.957031 134.390625 338.136719 134.527344 C 339.417969 135.496094 340.671875 136.410156 341.984375 137.402344 M 304.929688 113.589844 C 305.066406 113.589844 305.203125 113.625 305.339844 113.589844 C 307.460938 113.042969 309.5625 112.460938 311.699219 111.945312 C 313.5 111.511719 315.328125 111.148438 317.144531 110.769531 C 318.925781 110.40625 320.71875 110.0625 322.507812 109.730469 C 323.753906 109.503906 325.007812 109.320312 326.253906 109.101562 C 327.667969 108.863281 329.074219 108.554688 330.488281 108.363281 C 331.640625 108.203125 332.816406 108.246094 333.960938 108.054688 C 335.582031 107.769531 337.191406 107.515625 338.847656 107.515625 C 339.726562 107.515625 339.78125 107.449219 339.347656 106.613281 C 338.296875 104.605469 337.28125 102.585938 336.117188 100.644531 C 335.042969 98.863281 333.835938 97.164062 332.613281 95.472656 C 331.195312 93.511719 329.722656 91.601562 328.25 89.6875 C 326.699219 87.652344 325.136719 85.632812 323.535156 83.636719 C 322.566406 82.414062 321.503906 81.261719 320.535156 80.050781 C 319.140625 78.339844 317.804688 76.582031 316.414062 74.855469 C 315.738281 74.023438 314.972656 73.246094 314.277344 72.425781 C 312.679688 70.566406 311.183594 68.589844 309.472656 66.84375 C 306.402344 63.703125 303.214844 60.679688 300.03125 57.652344 C 298.308594 56.011719 296.503906 54.433594 294.699219 52.871094 C 292.953125 51.351562 291.195312 49.824219 289.378906 48.382812 C 287.699219 47.058594 285.921875 45.851562 284.207031 44.558594 C 282.621094 43.371094 281.058594 42.164062 279.492188 40.953125 C 277.882812 39.71875 276.308594 38.453125 274.664062 37.265625 C 274.070312 36.832031 273.417969 36.695312 272.597656 37.105469 C 268.660156 39.035156 264.640625 40.792969 260.710938 42.734375 C 257.574219 44.273438 254.492188 45.941406 251.429688 47.640625 C 248.839844 49.082031 246.25 50.542969 243.804688 52.207031 C 239.867188 54.878906 235.769531 57.324219 232.171875 60.460938 C 230.300781 62.09375 228.300781 63.566406 226.40625 65.164062 C 224.75 66.558594 223.140625 67.996094 221.554688 69.457031 C 218.816406 71.980469 216.074219 74.492188 213.402344 77.082031 C 211.738281 78.691406 210.265625 80.507812 208.597656 82.117188 C 205.570312 85.027344 202.832031 88.179688 200.320312 91.535156 C 199.144531 93.109375 197.96875 94.6875 196.871094 96.316406 C 195.21875 98.75 193.574219 101.191406 192.042969 103.703125 C 190.96875 105.460938 190.070312 107.335938 189.964844 109.457031 C 189.898438 111.125 189.78125 112.789062 189.738281 114.445312 C 189.464844 122.550781 189.988281 130.65625 189.429688 138.761719 C 189.316406 140.460938 189.429688 142.175781 189.632812 143.898438 C 189.929688 146.363281 189.542969 148.875 189.921875 151.375 C 190.207031 153.234375 189.898438 155.152344 190.183594 157.058594 C 190.480469 159.011719 190.386719 161.03125 190.445312 163.007812 C 190.640625 169.914062 190.410156 176.832031 190.789062 183.726562 C 190.800781 184 190.730469 184.296875 190.800781 184.546875 C 190.914062 184.9375 191.128906 185.289062 191.300781 185.65625 C 191.609375 185.507812 191.976562 185.417969 192.203125 185.1875 C 193.597656 183.75 194.941406 182.277344 196.3125 180.828125 C 197.773438 179.273438 199.222656 177.699219 200.707031 176.167969 C 201.359375 175.496094 202.136719 174.9375 202.832031 174.308594 C 204.234375 173.019531 205.652344 171.742188 207.011719 170.40625 C 209.386719 168.066406 211.875 165.863281 214.476562 163.761719 C 216.347656 162.242188 218.140625 160.632812 220.003906 159.09375 C 221.910156 157.503906 223.859375 155.964844 225.789062 154.398438 C 227.308594 153.167969 228.757812 151.84375 230.34375 150.714844 C 233.882812 148.191406 237.253906 145.417969 241.054688 143.269531 C 243.863281 141.683594 246.535156 139.878906 249.363281 138.339844 C 251.726562 137.046875 254.023438 135.65625 256.453125 134.480469 C 258.988281 133.246094 261.386719 131.730469 263.910156 130.484375 C 268.875 128.03125 273.875 125.679688 278.863281 123.292969 C 280.019531 122.746094 281.136719 122.117188 282.324219 121.648438 C 284.8125 120.65625 287.371094 119.824219 289.835938 118.785156 C 293.523438 117.21875 297.335938 115.988281 301.136719 114.742188 C 302.28125 114.308594 303.46875 113.957031 304.929688 113.589844 M 166.882812 197.242188 C 167.429688 197.242188 168.136719 197.460938 168.503906 197.195312 C 169.257812 196.660156 169.65625 197.195312 170.136719 197.484375 C 171.207031 198.097656 172.109375 199.023438 173.378906 199.332031 C 173.617188 199.390625 173.867188 199.546875 174.039062 199.71875 C 175.214844 200.882812 176.746094 201.363281 178.230469 201.933594 C 181.175781 203.054688 184.28125 203.488281 187.375 203.816406 C 189.328125 204.023438 191.359375 204.125 193.320312 203.589844 C 193.894531 203.429688 194.453125 203.15625 195.035156 203.054688 C 197.148438 202.675781 198.984375 201.648438 200.765625 200.574219 C 202.078125 199.789062 203.207031 198.691406 204.453125 197.789062 C 205.035156 197.367188 205.664062 197.003906 206.449219 196.945312 C 207.902344 196.84375 209.339844 196.601562 210.777344 196.421875 C 211.472656 196.328125 212.183594 196.273438 212.867188 196.136719 C 214.226562 195.882812 215.574219 195.554688 216.941406 195.324219 C 218.804688 195.015625 220.664062 194.742188 222.535156 194.492188 C 224.71875 194.195312 226.910156 193.921875 229.089844 193.667969 C 230.9375 193.453125 232.800781 193.203125 234.660156 193.132812 C 237.082031 193.054688 239.476562 192.835938 241.886719 192.574219 C 243.175781 192.4375 244.480469 192.4375 245.78125 192.335938 C 248.441406 192.128906 251.121094 192.21875 253.804688 192.039062 C 258.222656 191.742188 262.652344 192.164062 267.082031 191.773438 C 271.066406 191.433594 275.097656 191.695312 279.117188 191.511719 C 284.902344 191.25 290.703125 191.386719 296.503906 191.464844 C 302.257812 191.546875 308.023438 191.160156 313.789062 191.707031 C 316.308594 191.945312 318.867188 191.546875 321.402344 191.957031 C 322.898438 192.195312 324.449219 192.046875 325.980469 192.21875 C 327.785156 192.425781 329.597656 192.515625 331.402344 192.800781 C 333.195312 193.085938 335.023438 193.316406 336.824219 193.351562 C 339.609375 193.40625 342.386719 193.578125 345.160156 193.898438 C 346.519531 194.046875 347.886719 194.058594 349.210938 194.46875 C 349.542969 194.570312 349.851562 194.492188 349.78125 194 C 349.679688 193.351562 349.53125 192.699219 349.519531 192.046875 C 349.472656 190.574219 349.472656 189.101562 349.519531 187.628906 C 349.542969 186.820312 349.359375 186.160156 348.765625 185.585938 C 348.308594 185.132812 348.355469 184.664062 348.972656 184.296875 C 349.464844 184.011719 349.496094 183.660156 349.507812 183.191406 C 349.65625 177.300781 349.175781 171.386719 349.78125 165.496094 C 349.863281 164.753906 349.828125 164.023438 350.011719 163.246094 C 350.445312 161.421875 350.535156 159.515625 350.9375 157.675781 C 351.039062 157.207031 350.992188 157.058594 350.660156 156.933594 C 350.308594 156.796875 349.917969 156.707031 349.53125 156.648438 C 348.09375 156.453125 346.65625 156.273438 345.203125 156.089844 C 342.875 155.804688 340.558594 155.4375 338.230469 155.289062 C 336.277344 155.164062 334.335938 154.925781 332.382812 154.742188 C 330.136719 154.527344 327.863281 154.421875 325.601562 154.457031 C 322.097656 154.515625 318.582031 154.136719 315.089844 154.695312 C 313.570312 154.949219 312.027344 155.085938 310.488281 155.257812 C 308.730469 155.449219 306.960938 155.632812 305.191406 155.816406 C 304.265625 155.90625 303.328125 155.964844 302.417969 156.113281 C 301.046875 156.339844 299.699219 156.671875 298.328125 156.910156 C 297.027344 157.140625 295.667969 157.128906 294.4375 157.515625 C 293.042969 157.960938 291.605469 157.996094 290.210938 158.28125 C 288.875 158.554688 287.507812 158.625 286.171875 158.863281 C 284.425781 159.183594 282.699219 159.59375 280.964844 159.960938 C 279.902344 160.175781 278.820312 160.3125 277.78125 160.621094 C 277.128906 160.816406 276.605469 160.976562 276.066406 160.417969 C 275.941406 160.277344 275.644531 160.210938 275.460938 160.257812 C 274.628906 160.460938 273.820312 160.722656 272.996094 160.953125 C 270.609375 161.636719 268.226562 162.335938 265.839844 162.996094 C 262.90625 163.796875 259.960938 164.570312 257.015625 165.347656 C 255.105469 165.851562 253.1875 166.339844 251.292969 166.867188 C 249.066406 167.484375 246.851562 168.144531 244.636719 168.796875 C 242.789062 169.34375 240.949219 169.890625 239.113281 170.449219 C 235.472656 171.546875 231.816406 172.597656 228.1875 173.75 C 224.203125 175.003906 220.21875 176.261719 216.28125 177.664062 C 213.039062 178.816406 209.839844 180.121094 206.679688 181.464844 C 203.175781 182.960938 199.863281 184.84375 196.609375 186.820312 C 195.652344 187.402344 194.648438 187.917969 193.765625 188.601562 C 192.785156 189.367188 191.382812 188.40625 190.546875 189.515625 C 189.773438 188.964844 188.746094 189.46875 187.933594 188.816406 C 187.066406 188.121094 186.085938 187.539062 185.078125 187.058594 C 183.9375 186.511719 182.695312 186.167969 181.527344 185.644531 C 179.589844 184.777344 177.683594 183.828125 175.742188 182.9375 C 172.726562 181.558594 169.703125 180.1875 166.675781 178.839844 C 165.078125 178.132812 163.480469 177.460938 161.859375 176.820312 C 159.996094 176.089844 158.113281 175.425781 156.242188 174.730469 C 153.410156 173.679688 150.589844 172.585938 147.75 171.582031 C 145.019531 170.609375 142.269531 169.707031 139.503906 168.816406 C 136.582031 167.871094 133.671875 166.878906 130.703125 166.078125 C 127.929688 165.335938 125.167969 164.546875 122.371094 163.886719 C 121.546875 163.691406 120.484375 162.949219 119.664062 164.09375 C 119.59375 164.183594 119.308594 164.136719 119.140625 164.113281 C 118.179688 164 117.210938 163.921875 116.261719 163.738281 C 114.265625 163.351562 112.289062 162.871094 110.304688 162.472656 C 109.105469 162.230469 107.882812 162.105469 106.671875 161.890625 C 104.789062 161.546875 102.917969 161.179688 101.042969 160.804688 C 99.8125 160.566406 98.589844 160.257812 97.355469 160.050781 C 95.976562 159.8125 94.582031 159.617188 93.191406 159.433594 C 92.21875 159.308594 91.226562 159.320312 90.265625 159.136719 C 88.78125 158.839844 87.308594 158.578125 85.804688 158.601562 C 85.621094 158.601562 85.425781 158.636719 85.253906 158.601562 C 83.738281 158.257812 82.207031 158.03125 80.65625 158.054688 C 80.289062 158.054688 79.890625 158.144531 79.558594 158.042969 C 77.777344 157.460938 75.894531 158.054688 74.125 157.503906 C 68.597656 157.675781 63.0625 157.21875 57.535156 157.757812 C 54.921875 158.007812 52.273438 157.574219 49.648438 158.03125 C 48.414062 158.246094 47.148438 158.15625 45.890625 158.257812 C 43.527344 158.453125 41.164062 158.519531 38.8125 158.863281 C 37.191406 159.101562 35.539062 159.136719 33.9375 159.445312 C 31.621094 159.902344 29.328125 160.53125 27.03125 161.078125 C 25.960938 161.328125 25.9375 161.316406 25.949219 162.300781 C 25.980469 164.421875 25.96875 166.546875 26.175781 168.679688 C 26.496094 172.164062 25.980469 175.691406 26.460938 179.195312 C 26.722656 181.113281 26.53125 183.066406 26.699219 185.015625 C 26.929688 187.597656 26.941406 190.210938 27.292969 192.789062 C 27.5 194.296875 27.546875 195.839844 27.570312 197.367188 C 27.582031 197.996094 27.796875 198.167969 28.34375 198.074219 C 28.5625 198.042969 28.765625 197.984375 28.972656 197.9375 C 30.535156 197.621094 32.101562 197.253906 33.6875 196.992188 C 35.070312 196.75 36.484375 196.660156 37.878906 196.421875 C 39.761719 196.101562 41.609375 195.632812 43.496094 195.347656 C 45.722656 195.003906 47.957031 194.765625 50.183594 194.515625 C 52.035156 194.308594 53.894531 194.046875 55.753906 193.976562 C 57.902344 193.898438 60.023438 193.660156 62.148438 193.429688 C 63.667969 193.269531 65.195312 193.304688 66.726562 193.179688 C 69.992188 192.894531 73.269531 193.222656 76.554688 192.90625 C 80.265625 192.550781 84.011719 192.925781 87.753906 192.640625 C 92.710938 192.265625 97.699219 192.699219 102.6875 192.378906 C 106.03125 192.164062 109.414062 192.105469 112.792969 192.550781 C 114.984375 192.835938 117.210938 192.5625 119.449219 192.800781 C 121.84375 193.054688 124.265625 193.074219 126.671875 193.394531 C 128.226562 193.601562 129.8125 193.601562 131.390625 193.691406 C 131.570312 193.703125 131.765625 193.660156 131.9375 193.703125 C 133.546875 194.058594 135.167969 194.273438 136.8125 194.25 C 137.039062 194.25 137.335938 194.160156 137.496094 194.261719 C 138.125 194.6875 138.808594 194.457031 139.460938 194.527344 C 140.109375 194.605469 140.761719 194.742188 141.414062 194.789062 C 142.894531 194.902344 144.390625 194.84375 145.839844 195.121094 C 146.824219 195.300781 147.839844 195.140625 148.753906 195.40625 C 149.519531 195.621094 150.261719 195.554688 151.003906 195.632812 C 151.789062 195.714844 152.578125 195.839844 153.375 195.90625 C 154.667969 196.019531 155.980469 196 157.257812 196.214844 C 158.878906 196.476562 160.511719 196.601562 162.132812 196.785156 C 163.480469 196.933594 164.816406 197.003906 166.164062 197.027344 C 166.3125 196.980469 166.460938 197.152344 166.882812 197.242188 M 188.003906 106.546875 C 188.003906 106.316406 188.058594 106.066406 187.992188 105.863281 C 187.488281 104.183594 186.976562 102.515625 186.4375 100.851562 C 184.976562 96.316406 183.480469 91.785156 181.65625 87.378906 C 180.34375 84.195312 179.164062 80.953125 177.726562 77.824219 C 176.414062 74.960938 174.886719 72.1875 173.355469 69.421875 C 171.769531 66.570312 169.976562 63.839844 168.421875 60.976562 C 166.289062 57.058594 163.71875 53.429688 161.242188 49.742188 C 159.699219 47.449219 157.953125 45.300781 156.289062 43.097656 C 154.246094 40.40625 152.210938 37.6875 150.132812 35.027344 C 148.84375 33.382812 147.472656 31.796875 146.136719 30.1875 C 144.710938 28.476562 143.285156 26.773438 141.847656 25.0625 C 141.640625 24.824219 141.367188 24.628906 141.171875 24.378906 C 139.402344 22.015625 137.175781 20.132812 134.871094 18.339844 C 134.390625 17.960938 134.175781 17.847656 134.164062 18.601562 C 134.164062 18.796875 133.933594 18.976562 133.910156 19.183594 C 133.59375 21.375 132.472656 23.28125 131.664062 25.289062 C 131.082031 26.75 130.257812 28.121094 129.472656 29.492188 C 128.019531 32.027344 126.59375 34.582031 124.996094 37.027344 C 122.425781 40.953125 119.949219 44.9375 117.0625 48.648438 C 115.453125 50.722656 113.945312 52.894531 112.3125 54.960938 C 110.851562 56.808594 109.21875 58.542969 107.757812 60.394531 C 106.46875 62.039062 105.234375 63.75 104.09375 65.496094 C 102.425781 68.054688 100.90625 70.714844 99.242188 73.28125 C 97.152344 76.488281 95.234375 79.789062 93.507812 83.203125 C 92.035156 86.125 90.691406 89.113281 89.308594 92.082031 C 89.207031 92.300781 89.25 92.574219 89.238281 92.824219 C 89.492188 92.800781 89.742188 92.8125 89.980469 92.769531 C 91.03125 92.539062 92.09375 92.324219 93.144531 92.058594 C 94.386719 91.75 95.65625 91.636719 96.910156 91.476562 C 98.488281 91.273438 100.0625 90.953125 101.660156 90.976562 C 103.054688 91 104.433594 91.136719 105.828125 91.238281 C 106.753906 91.308594 107.6875 91.398438 108.613281 91.523438 C 109.207031 91.601562 109.8125 91.730469 110.394531 91.890625 C 112.574219 92.484375 114.777344 93.019531 116.832031 94 C 119.058594 95.0625 121.34375 96.042969 123.476562 97.289062 C 125.417969 98.429688 127.277344 99.730469 129.09375 101.113281 C 131.640625 103.054688 134.195312 104.972656 136.480469 107.21875 C 139.070312 109.765625 141.664062 112.3125 143.921875 115.164062 C 145.441406 117.09375 147.121094 118.898438 148.683594 120.792969 C 150.214844 122.632812 151.675781 124.527344 153.183594 126.375 C 154.085938 127.484375 155.03125 128.542969 155.898438 129.664062 C 157.589844 131.855469 159.222656 134.082031 160.886719 136.285156 C 162.636719 138.601562 164.496094 140.839844 166.128906 143.222656 C 168.8125 147.152344 171.402344 151.148438 173.914062 155.175781 C 175.773438 158.15625 177.386719 161.296875 179.246094 164.273438 C 181.347656 167.621094 183.171875 171.101562 184.988281 174.59375 C 186.1875 176.898438 187.683594 179.070312 188.320312 181.636719 C 188.355469 181.785156 188.574219 181.898438 188.699219 182.027344 C 188.746094 181.867188 188.847656 181.71875 188.847656 181.558594 C 188.710938 177.824219 189.007812 174.09375 188.628906 170.347656 C 188.300781 166.957031 188.765625 163.519531 188.320312 160.109375 C 188.105469 158.417969 188.320312 156.695312 188.082031 154.972656 C 187.761719 152.609375 187.773438 150.175781 187.761719 147.777344 C 187.726562 141.339844 187.71875 134.902344 187.761719 128.453125 C 187.808594 121.546875 187.933594 114.640625 188.035156 107.722656 C 188.011719 107.402344 188.09375 107.046875 188.003906 106.546875 M 105.726562 59.902344 C 105.851562 59.6875 105.953125 59.433594 106.113281 59.242188 C 108.054688 56.910156 110.050781 54.628906 111.945312 52.265625 C 113.238281 50.667969 114.433594 48.976562 115.65625 47.324219 C 116.683594 45.917969 117.667969 44.46875 118.707031 43.066406 C 119.308594 42.253906 119.300781 42.046875 118.386719 41.546875 C 118.203125 41.445312 118.007812 41.351562 117.816406 41.273438 C 115.613281 40.257812 113.40625 39.25 111.203125 38.234375 C 109.273438 37.34375 107.347656 36.457031 105.40625 35.574219 C 104.433594 35.132812 103.542969 35.132812 102.664062 35.882812 C 102.082031 36.386719 101.339844 36.695312 100.714844 37.140625 C 98.898438 38.429688 97.082031 39.730469 95.3125 41.078125 C 93.761719 42.265625 92.355469 43.648438 90.757812 44.753906 C 87.527344 46.992188 84.660156 49.652344 81.726562 52.21875 C 79.011719 54.59375 76.488281 57.1875 73.917969 59.707031 C 73.015625 60.585938 72.261719 61.625 71.363281 62.503906 C 68.300781 65.519531 65.183594 68.476562 62.125 71.5 C 60.90625 72.710938 59.773438 74.023438 58.597656 75.28125 C 57.261719 76.707031 55.9375 78.132812 54.589844 79.558594 C 52.707031 81.546875 50.8125 83.511719 48.941406 85.496094 C 47.785156 86.71875 46.632812 87.9375 45.527344 89.195312 C 43.722656 91.238281 41.917969 93.304688 40.160156 95.394531 C 39.007812 96.75 38.050781 98.246094 37.273438 99.84375 C 36.578125 101.261719 35.914062 102.6875 35.285156 104.125 C 34.886719 105.0625 34.542969 106.03125 34.246094 107.003906 C 34.179688 107.21875 33.925781 107.769531 34.613281 107.800781 C 36.496094 107.894531 38.355469 108.257812 40.207031 108.613281 C 42.054688 108.964844 43.949219 109.070312 45.789062 109.492188 C 47.683594 109.925781 49.636719 109.867188 51.53125 110.28125 C 52.089844 110.40625 52.683594 110.382812 53.265625 110.417969 C 53.882812 110.449219 54.695312 110.746094 55.082031 110.460938 C 55.902344 109.867188 55.949219 111.03125 56.601562 110.894531 C 57.34375 110.746094 58.175781 111 58.953125 111.148438 C 60.183594 111.386719 61.394531 111.71875 62.617188 111.933594 C 64.328125 112.253906 66.074219 112.4375 67.777344 112.8125 C 69.488281 113.179688 71.15625 113.839844 72.878906 114.125 C 75.792969 114.59375 78.554688 115.574219 81.40625 116.238281 C 83.953125 116.832031 86.453125 117.597656 88.964844 118.304688 C 91.71875 119.09375 94.492188 119.84375 97.21875 120.714844 C 101.558594 122.105469 105.894531 123.476562 110.144531 125.164062 C 112.953125 126.285156 115.761719 127.378906 118.476562 128.714844 C 122.265625 130.574219 126.011719 132.527344 129.757812 134.457031 C 131.421875 135.3125 133.101562 136.160156 134.746094 137.082031 C 138.148438 138.988281 141.527344 140.917969 144.90625 142.882812 C 146.503906 143.808594 148.089844 144.765625 149.632812 145.792969 C 152.304688 147.574219 154.964844 149.398438 157.578125 151.261719 C 158.949219 152.230469 160.25 153.304688 161.527344 154.378906 C 163.011719 155.609375 164.4375 156.910156 165.890625 158.179688 C 168.082031 160.097656 170.351562 161.945312 172.464844 163.957031 C 175.890625 167.21875 179.164062 170.644531 182.25 174.242188 C 182.363281 174.378906 182.566406 174.433594 182.726562 174.527344 C 182.714844 174.308594 182.796875 174.023438 182.683594 173.886719 C 181.835938 172.882812 181.371094 171.671875 180.730469 170.554688 C 179.15625 167.789062 177.5 165.074219 175.867188 162.355469 C 174.738281 160.472656 173.605469 158.589844 172.453125 156.742188 C 171.128906 154.617188 169.691406 152.5625 168.421875 150.40625 C 166.527344 147.175781 164.277344 144.195312 162.109375 141.160156 C 160.910156 139.492188 159.710938 137.8125 158.46875 136.179688 C 157.019531 134.285156 155.511719 132.425781 154.015625 130.574219 C 153.058594 129.398438 152.050781 128.269531 151.09375 127.09375 C 149.710938 125.371094 148.375 123.613281 146.984375 121.898438 C 146 120.691406 144.972656 119.515625 143.957031 118.316406 C 142.371094 116.445312 140.828125 114.527344 139.164062 112.722656 C 137.417969 110.839844 135.53125 109.070312 133.71875 107.242188 C 133.488281 107.015625 133.285156 106.761719 133.03125 106.570312 C 131.148438 105.132812 129.289062 103.648438 127.347656 102.289062 C 125.191406 100.769531 123.03125 99.21875 120.726562 97.949219 C 118.535156 96.742188 116.183594 95.804688 113.851562 94.902344 C 112.507812 94.378906 111.054688 94.082031 109.628906 93.785156 C 107.960938 93.441406 106.273438 93.042969 104.59375 92.984375 C 102.195312 92.90625 99.789062 93.054688 97.402344 93.246094 C 95.988281 93.363281 94.582031 93.738281 93.191406 94.058594 C 91.761719 94.390625 90.371094 94.800781 88.953125 95.140625 C 88.359375 95.289062 87.742188 95.371094 87.140625 95.417969 C 86.648438 95.449219 86.398438 95.140625 86.441406 94.652344 C 86.464844 94.355469 86.488281 94.023438 86.601562 93.75 C 87.789062 90.976562 88.964844 88.203125 90.222656 85.449219 C 90.816406 84.125 91.558594 82.871094 92.242188 81.59375 C 93.347656 79.515625 94.410156 77.414062 95.597656 75.394531 C 96.601562 73.679688 97.847656 72.105469 98.851562 70.382812 C 100.894531 66.785156 103.179688 63.371094 105.726562 59.902344 M 185.9375 184.261719 C 186.597656 184.605469 187.273438 184.960938 187.933594 185.300781 C 187.589844 184.546875 187.375 183.691406 186.882812 183.042969 C 185.046875 180.566406 183.171875 178.109375 181.230469 175.722656 C 180.113281 174.355469 178.878906 173.074219 177.625 171.832031 C 174.175781 168.417969 170.683594 165.050781 167.203125 161.683594 C 166.425781 160.929688 165.613281 160.222656 164.78125 159.539062 C 162.863281 157.960938 160.945312 156.386719 158.992188 154.855469 C 157.269531 153.5 155.546875 152.128906 153.730469 150.882812 C 151.277344 149.183594 148.777344 147.539062 146.242188 145.988281 C 143.238281 144.148438 140.179688 142.414062 137.132812 140.667969 C 135.761719 139.878906 134.335938 139.207031 132.941406 138.453125 C 129.746094 136.71875 126.59375 134.890625 123.375 133.222656 C 120.542969 131.761719 117.644531 130.417969 114.730469 129.101562 C 112.484375 128.097656 110.199219 127.152344 107.882812 126.316406 C 104.675781 125.164062 101.433594 124.113281 98.203125 123.042969 C 96.136719 122.355469 94.070312 121.660156 91.980469 121.066406 C 89.421875 120.335938 86.832031 119.71875 84.261719 119.035156 C 82.308594 118.519531 80.378906 117.972656 78.429688 117.472656 C 76.054688 116.867188 73.667969 116.273438 71.28125 115.722656 C 68.882812 115.175781 66.476562 114.675781 64.066406 114.148438 C 62.84375 113.886719 61.625 113.601562 60.378906 113.382812 C 58.996094 113.144531 57.605469 112.972656 56.210938 112.769531 C 55.640625 112.6875 55.160156 112.835938 54.785156 113.328125 C 54.292969 113.964844 53.792969 114.59375 53.222656 115.164062 C 50.664062 117.746094 48.082031 120.3125 45.515625 122.882812 C 45.253906 123.144531 44.988281 123.394531 44.738281 123.667969 C 43.792969 124.695312 42.890625 125.78125 41.894531 126.761719 C 40.445312 128.203125 38.917969 129.570312 37.445312 130.976562 C 37.339844 131.066406 37.328125 131.285156 37.328125 131.445312 C 37.328125 131.476562 37.558594 131.523438 37.683594 131.546875 C 38.9375 131.730469 40.21875 131.84375 41.449219 132.117188 C 43.300781 132.515625 45.117188 133.074219 46.953125 133.464844 C 49.796875 134.070312 52.660156 134.546875 55.515625 135.140625 C 57.96875 135.65625 60.402344 136.214844 62.832031 136.796875 C 64.796875 137.265625 66.761719 137.757812 68.714844 138.28125 C 71.28125 138.964844 73.839844 139.6875 76.394531 140.382812 C 78.917969 141.078125 81.441406 141.761719 83.953125 142.472656 C 85.644531 142.949219 87.308594 143.476562 88.988281 143.964844 C 91.453125 144.675781 93.941406 145.335938 96.398438 146.089844 C 98.394531 146.707031 100.347656 147.449219 102.324219 148.109375 C 105.882812 149.296875 109.445312 150.4375 113.007812 151.648438 C 115.382812 152.460938 117.710938 153.40625 120.109375 154.171875 C 123.84375 155.371094 127.425781 156.933594 131.070312 158.382812 C 132.769531 159.058594 134.425781 159.84375 136.113281 160.53125 C 139.070312 161.71875 142.0625 162.835938 145.007812 164.046875 C 147.601562 165.109375 150.167969 166.238281 152.75 167.355469 C 155.992188 168.761719 159.234375 170.152344 162.453125 171.59375 C 163.972656 172.265625 165.386719 173.214844 166.9375 173.761719 C 169.621094 174.695312 171.984375 176.25 174.484375 177.539062 C 177.03125 178.851562 179.484375 180.359375 181.964844 181.808594 C 183.230469 182.539062 184.507812 183.339844 185.9375 184.261719 M 224.167969 167.015625 C 222.410156 168.214844 220.640625 169.398438 218.90625 170.632812 C 216.941406 172.027344 215.011719 173.464844 213.074219 174.878906 C 211.589844 175.964844 210.105469 177.046875 208.632812 178.144531 C 208.515625 178.234375 208.496094 178.453125 208.425781 178.601562 C 208.550781 178.566406 208.6875 178.53125 208.8125 178.488281 C 212.195312 177.195312 215.539062 175.828125 218.941406 174.617188 C 221.792969 173.601562 224.695312 172.746094 227.59375 171.84375 C 230.894531 170.816406 234.203125 169.8125 237.515625 168.808594 C 239.308594 168.257812 241.097656 167.664062 242.902344 167.164062 C 245.460938 166.457031 248.050781 165.839844 250.621094 165.132812 C 253.050781 164.457031 255.460938 163.691406 257.894531 163.019531 C 261.363281 162.070312 264.855469 161.179688 268.339844 160.246094 C 270.371094 159.707031 272.390625 159.136719 274.414062 158.589844 C 276.480469 158.03125 278.546875 157.449219 280.632812 156.945312 C 282.359375 156.523438 284.128906 156.308594 285.828125 155.804688 C 288.855469 154.925781 291.9375 154.332031 294.996094 153.613281 C 297.1875 153.097656 299.402344 152.710938 301.59375 152.195312 C 303.878906 151.660156 306.195312 151.351562 308.488281 150.882812 C 309.824219 150.609375 311.195312 150.542969 312.53125 150.300781 C 314.414062 149.972656 316.265625 149.539062 318.148438 149.21875 C 320.101562 148.886719 322.050781 148.636719 324.015625 148.382812 C 325.683594 148.167969 327.359375 147.972656 329.027344 147.835938 C 330.820312 147.699219 332.636719 147.539062 334.429688 147.574219 C 337.75 147.640625 341.070312 147.324219 344.394531 147.789062 C 346.015625 148.019531 347.707031 147.835938 349.359375 147.824219 C 349.484375 147.824219 349.613281 147.777344 349.738281 147.746094 C 349.644531 147.621094 349.566406 147.472656 349.464844 147.355469 C 348.984375 146.867188 348.425781 146.433594 348.011719 145.882812 C 346.324219 143.601562 344.359375 141.582031 342.167969 139.777344 C 341.621094 139.332031 341.074219 138.875 340.511719 138.441406 C 339.335938 137.515625 338.136719 136.613281 336.972656 135.667969 C 336.484375 135.269531 336.117188 134.695312 335.59375 134.367188 C 335.339844 134.207031 334.875 133.613281 334.472656 134.296875 C 333.410156 134.296875 332.292969 134.070312 331.3125 134.355469 C 329.816406 134.777344 328.320312 134.445312 326.824219 134.800781 C 325.316406 135.152344 323.671875 134.914062 322.132812 135.175781 C 321.152344 135.347656 320.179688 135.3125 319.210938 135.417969 C 317.246094 135.644531 315.304688 135.988281 313.34375 136.214844 C 311.402344 136.445312 309.449219 136.59375 307.496094 136.773438 C 306.664062 136.855469 305.820312 136.921875 304.984375 137.058594 C 303.398438 137.3125 301.8125 137.621094 300.226562 137.871094 C 298.878906 138.085938 297.519531 138.191406 296.183594 138.441406 C 294.480469 138.761719 292.804688 139.160156 291.113281 139.539062 C 289.597656 139.867188 288.066406 140.164062 286.558594 140.542969 C 284.6875 141 282.828125 141.511719 280.964844 142.027344 C 278.121094 142.8125 275.257812 143.542969 272.449219 144.445312 C 266.078125 146.476562 259.742188 148.566406 253.53125 151.078125 C 250.414062 152.34375 247.296875 153.601562 244.273438 155.027344 C 240.722656 156.707031 237.308594 158.648438 233.851562 160.519531 C 232.527344 161.238281 231.234375 162.027344 229.992188 162.871094 C 228.0625 164.171875 226.191406 165.542969 224.167969 167.015625 M 41.542969 150.3125 C 42.84375 150.40625 44.132812 150.496094 45.433594 150.585938 C 46.828125 150.691406 48.210938 150.644531 49.601562 150.792969 C 51.863281 151.03125 54.132812 151.160156 56.40625 151.375 C 58.085938 151.535156 59.75 151.707031 61.417969 151.945312 C 63.265625 152.207031 65.128906 152.335938 66.988281 152.515625 C 67.867188 152.609375 68.757812 152.664062 69.636719 152.800781 C 71.316406 153.054688 72.996094 153.382812 74.683594 153.613281 C 75.792969 153.761719 76.945312 153.679688 78.007812 153.945312 C 78.816406 154.136719 79.628906 154 80.378906 154.207031 C 82.21875 154.707031 84.136719 154.59375 85.984375 154.984375 C 87.070312 155.210938 88.210938 155.175781 89.320312 155.289062 C 90.0625 155.371094 90.804688 155.460938 91.546875 155.585938 C 93.050781 155.839844 94.546875 156.136719 96.042969 156.386719 C 97.300781 156.59375 98.566406 156.730469 99.8125 156.957031 C 101.511719 157.277344 103.191406 157.675781 104.878906 158.042969 C 106.023438 158.292969 107.152344 158.554688 108.292969 158.796875 C 110.109375 159.195312 111.925781 159.59375 113.738281 159.960938 C 115.269531 160.269531 116.832031 160.472656 118.339844 160.863281 C 121.707031 161.71875 125.050781 162.640625 128.398438 163.566406 C 131.539062 164.433594 134.664062 165.300781 137.78125 166.226562 C 139.90625 166.855469 142.015625 167.5625 144.117188 168.257812 C 147.109375 169.25 150.113281 170.222656 153.066406 171.308594 C 155.625 172.242188 158.089844 173.429688 160.660156 174.296875 C 164.175781 175.496094 167.488281 177.152344 170.878906 178.636719 C 172.988281 179.558594 174.988281 180.703125 177.054688 181.730469 C 177.429688 181.910156 177.875 181.96875 178.296875 182.046875 C 178.378906 182.058594 178.492188 181.945312 178.59375 181.898438 C 178.515625 181.867188 178.433594 181.832031 178.367188 181.785156 C 177.464844 181.308594 176.5625 180.816406 175.648438 180.335938 C 172.933594 178.898438 170.226562 177.449219 167.488281 176.054688 C 165.742188 175.164062 164.003906 174.25 162.179688 173.53125 C 159.050781 172.300781 156.046875 170.792969 152.941406 169.492188 C 150.75 168.578125 148.605469 167.515625 146.402344 166.613281 C 143.730469 165.519531 141.011719 164.527344 138.328125 163.441406 C 136.707031 162.789062 135.132812 162.046875 133.511719 161.410156 C 130.074219 160.050781 126.628906 158.714844 123.15625 157.402344 C 120.210938 156.296875 117.253906 155.210938 114.277344 154.183594 C 108.921875 152.335938 103.554688 150.507812 98.179688 148.726562 C 95.460938 147.824219 92.722656 147.003906 89.980469 146.179688 C 87.734375 145.507812 85.460938 144.890625 83.1875 144.242188 C 80.929688 143.601562 78.667969 142.917969 76.394531 142.324219 C 74.066406 141.71875 71.691406 141.273438 69.375 140.597656 C 65.6875 139.539062 61.988281 138.566406 58.222656 137.882812 C 55.675781 137.414062 53.152344 136.808594 50.617188 136.238281 C 48.3125 135.714844 46.015625 135.121094 43.710938 134.605469 C 43.335938 134.527344 42.707031 134.59375 42.523438 134.84375 C 40.996094 136.820312 39.578125 138.863281 38.070312 140.851562 C 36.53125 142.894531 34.921875 144.890625 33.34375 146.898438 C 32.796875 147.597656 32.214844 148.257812 31.734375 149 C 31.4375 149.457031 30.515625 149.84375 30.960938 150.382812 C 31.234375 150.722656 32.167969 150.597656 32.796875 150.574219 C 35.628906 150.507812 38.449219 150.40625 41.542969 150.3125 M 73.839844 198.898438 C 73.988281 198.808594 74.125 198.648438 74.273438 198.636719 C 76.5 198.441406 78.714844 198.234375 80.941406 198.085938 C 82.332031 197.996094 83.714844 198.109375 85.105469 197.835938 C 86.417969 197.585938 87.777344 197.800781 89.136719 197.574219 C 90.679688 197.324219 92.277344 197.515625 93.851562 197.277344 C 95.40625 197.039062 96.980469 197.289062 98.566406 197.015625 C 100.246094 196.730469 101.980469 197.003906 103.691406 196.730469 C 105.371094 196.457031 107.105469 196.648438 108.820312 196.476562 C 111.433594 196.214844 114.070312 196.273438 116.707031 196.191406 C 122.222656 196.019531 127.746094 196.148438 133.273438 196.136719 C 133.648438 196.136719 134.027344 196.03125 134.414062 195.988281 C 134.003906 195.851562 133.601562 195.714844 133.191406 195.597656 C 133.019531 195.554688 132.828125 195.597656 132.644531 195.585938 C 131.527344 195.519531 130.417969 195.484375 129.300781 195.382812 C 126.992188 195.164062 124.664062 195.039062 122.359375 194.777344 C 121.160156 194.640625 119.949219 194.6875 118.738281 194.546875 C 116.640625 194.308594 114.492188 194.285156 112.367188 194.273438 C 107.484375 194.242188 102.609375 194.058594 97.710938 194.445312 C 93.074219 194.8125 88.40625 194.308594 83.75 194.730469 C 79.992188 195.074219 76.203125 194.707031 72.410156 194.984375 C 68.449219 195.257812 64.453125 195.074219 60.492188 195.585938 C 58.847656 195.804688 57.171875 195.792969 55.503906 195.882812 C 55.414062 195.882812 55.320312 195.871094 55.230469 195.882812 C 53.929688 196.066406 52.628906 196.285156 51.316406 196.421875 C 50.117188 196.558594 48.90625 196.601562 47.707031 196.707031 C 46.875 196.773438 46.027344 196.855469 45.195312 196.980469 C 43.5625 197.230469 41.929688 197.527344 40.296875 197.800781 C 39.042969 198.007812 37.785156 198.15625 36.53125 198.382812 C 35.25 198.613281 33.996094 198.921875 32.71875 199.183594 C 31.4375 199.445312 30.148438 199.628906 28.894531 199.949219 C 26.839844 200.472656 25.652344 199.605469 25.640625 197.484375 C 25.640625 196.75 25.652344 196.011719 25.628906 195.277344 C 25.617188 195.109375 25.46875 194.9375 25.375 194.777344 C 25.261719 194.925781 25.136719 195.074219 25.046875 195.246094 C 24.679688 195.917969 24.339844 196.601562 23.984375 197.289062 C 22.738281 199.675781 21.507812 202.058594 20.25 204.433594 C 19.976562 204.960938 20.101562 205.3125 20.683594 205.257812 C 21.996094 205.121094 23.289062 204.890625 24.601562 204.71875 C 26.222656 204.515625 27.855469 204.398438 29.476562 204.148438 C 31.585938 203.828125 33.675781 203.371094 35.789062 203.074219 C 37.546875 202.824219 39.316406 202.699219 41.074219 202.503906 C 41.90625 202.414062 42.773438 202.425781 43.574219 202.207031 C 44.863281 201.84375 46.1875 201.898438 47.5 201.707031 C 48.734375 201.511719 50 201.546875 51.246094 201.398438 C 53.210938 201.160156 55.152344 200.828125 57.113281 200.585938 C 58.402344 200.4375 59.707031 200.394531 60.996094 200.300781 C 61.132812 200.289062 61.28125 200.324219 61.394531 200.277344 C 62.480469 199.855469 63.644531 199.9375 64.761719 199.765625 C 65.949219 199.59375 67.183594 199.664062 68.371094 199.445312 C 70.117188 199.113281 71.828125 198.875 73.839844 198.898438 M 38.230469 156.933594 C 39.933594 156.59375 41.679688 156.773438 43.390625 156.421875 C 44.691406 156.148438 46.050781 156.421875 47.421875 156.160156 C 49.042969 155.851562 50.734375 155.894531 52.398438 155.839844 C 56.632812 155.679688 60.871094 156.054688 65.117188 155.597656 C 67.34375 155.359375 69.613281 155.53125 71.875 155.566406 C 73.175781 155.585938 74.46875 155.746094 75.757812 155.816406 C 75.894531 155.828125 76.03125 155.714844 76.167969 155.65625 C 76.042969 155.621094 75.929688 155.574219 75.792969 155.554688 C 74.535156 155.371094 73.28125 155.085938 72.023438 155.027344 C 70.378906 154.949219 68.769531 154.730469 67.148438 154.46875 C 65.070312 154.136719 62.972656 153.886719 60.871094 153.636719 C 59.066406 153.417969 57.261719 153.179688 55.449219 153.097656 C 53.347656 153.007812 51.28125 152.769531 49.191406 152.550781 C 47.308594 152.34375 45.414062 152.289062 43.515625 152.265625 C 40.195312 152.230469 36.882812 152.289062 33.5625 152.460938 C 31.953125 152.550781 30.71875 152.734375 29.875 154.242188 C 28.984375 155.816406 27.945312 157.300781 26.976562 158.828125 C 26.929688 158.910156 26.917969 159.023438 26.894531 159.113281 C 26.988281 159.125 27.101562 159.171875 27.15625 159.136719 C 28.414062 158.371094 29.898438 158.40625 31.269531 158.085938 C 33.449219 157.550781 35.707031 157.300781 38.230469 156.933594 M 322.863281 152.515625 C 325.820312 152.609375 328.765625 152.699219 331.722656 152.789062 C 331.859375 152.789062 332.007812 152.757812 332.132812 152.789062 C 333.6875 153.246094 335.296875 153.109375 336.871094 153.328125 C 338.117188 153.488281 339.371094 153.476562 340.617188 153.636719 C 342.394531 153.863281 344.15625 154.261719 345.933594 154.421875 C 347.339844 154.546875 348.742188 154.652344 350.125 154.992188 C 350.273438 155.027344 350.445312 154.914062 350.617188 154.867188 C 350.546875 154.707031 350.511719 154.527344 350.410156 154.398438 C 350.171875 154.125 349.851562 153.910156 349.644531 153.613281 C 348.847656 152.484375 348.09375 151.316406 347.28125 150.175781 C 347.144531 149.984375 346.859375 149.800781 346.632812 149.777344 C 345.480469 149.652344 344.3125 149.492188 343.160156 149.503906 C 338.835938 149.546875 334.496094 149.285156 330.167969 149.753906 C 328.832031 149.902344 327.464844 149.824219 326.152344 150.085938 C 325.351562 150.246094 324.5625 150.222656 323.777344 150.324219 C 322.179688 150.554688 320.601562 150.882812 319.015625 151.136719 C 317.578125 151.351562 316.128906 151.476562 314.6875 151.707031 C 313.101562 151.945312 311.515625 152.265625 309.929688 152.515625 C 309.1875 152.640625 308.410156 152.597656 307.703125 152.8125 C 305.453125 153.511719 303.089844 153.589844 300.816406 154.171875 C 299.769531 154.433594 298.695312 154.605469 297.644531 154.84375 C 297.4375 154.890625 297.269531 155.027344 297.074219 155.132812 C 297.269531 155.1875 297.472656 155.289062 297.65625 155.277344 C 298.304688 155.210938 298.980469 155.175781 299.609375 154.992188 C 301.125 154.558594 302.667969 154.296875 304.230469 154.171875 C 305.109375 154.101562 305.988281 154 306.867188 153.875 C 307.90625 153.726562 308.921875 153.5 309.960938 153.363281 C 310.980469 153.222656 312.007812 153.234375 313.023438 153.066406 C 314.824219 152.757812 316.628906 152.550781 318.457031 152.527344 C 319.835938 152.503906 321.207031 152.515625 322.863281 152.515625 M 332.808594 194.753906 C 331.882812 194.664062 330.957031 194.558594 330.019531 194.480469 C 328.730469 194.378906 327.382812 194.46875 326.140625 194.160156 C 324.289062 193.691406 322.40625 193.898438 320.558594 193.726562 C 316.753906 193.371094 312.90625 193.464844 309.082031 193.371094 C 308.902344 193.371094 308.648438 193.453125 308.546875 193.363281 C 307.839844 192.800781 307.039062 193.234375 306.296875 193.109375 C 306.171875 193.085938 306.023438 193.246094 305.886719 193.316406 C 306.035156 193.429688 306.171875 193.625 306.320312 193.636719 C 307.578125 193.691406 308.832031 193.808594 310.078125 193.863281 C 312.953125 194 315.820312 194.136719 318.683594 194.433594 C 320.441406 194.617188 322.210938 194.730469 323.96875 195.003906 C 325.71875 195.277344 327.5 195.394531 329.257812 195.574219 C 330.042969 195.65625 330.84375 195.722656 331.632812 195.863281 C 333.082031 196.113281 334.519531 196.453125 335.980469 196.671875 C 337.691406 196.910156 339.441406 196.945312 341.128906 197.289062 C 341.929688 197.449219 342.738281 197.367188 343.503906 197.539062 C 345.492188 197.972656 347.511719 198.109375 349.519531 198.339844 C 349.839844 198.371094 350.171875 198.292969 350.480469 198.363281 C 352.132812 198.714844 353.800781 198.921875 355.503906 198.898438 C 356.164062 198.886719 355.671875 198.636719 355.582031 198.464844 C 355.183594 197.710938 354.761719 196.96875 354.40625 196.191406 C 353.574219 194.378906 352.316406 192.757812 351.941406 190.722656 C 351.917969 190.585938 351.6875 190.484375 351.5625 190.359375 C 351.519531 190.484375 351.449219 190.597656 351.449219 190.722656 C 351.4375 191.042969 351.425781 191.375 351.449219 191.695312 C 351.53125 192.757812 351.65625 193.828125 351.710938 194.890625 C 351.746094 195.449219 351.085938 196.398438 350.617188 196.410156 C 349.246094 196.433594 347.75 196.707031 346.539062 196.25 C 344.703125 195.554688 342.832031 195.667969 340.980469 195.359375 C 339.394531 195.097656 337.75 195.4375 336.128906 195.0625 C 335.148438 194.835938 334.109375 194.84375 332.808594 194.753906 M 231.488281 195.863281 C 231.816406 195.769531 232.136719 195.632812 232.480469 195.597656 C 233.585938 195.484375 234.695312 195.382812 235.8125 195.324219 C 237.113281 195.257812 238.394531 195.277344 239.707031 195.097656 C 241.269531 194.878906 242.878906 195.0625 244.457031 194.800781 C 245.300781 194.664062 246.203125 194.855469 247.070312 194.753906 C 247.824219 194.664062 248.601562 194.605469 249.351562 194.546875 C 252.253906 194.34375 255.152344 194.308594 258.050781 194.230469 C 258.738281 194.207031 259.433594 194.230469 260.117188 194.21875 C 260.199219 194.21875 260.324219 194.046875 260.324219 193.957031 C 260.324219 193.863281 260.210938 193.703125 260.117188 193.691406 C 259.84375 193.660156 259.570312 193.667969 259.296875 193.679688 C 256.898438 193.773438 254.503906 193.851562 252.105469 193.964844 C 250.347656 194.046875 248.601562 193.875 246.832031 194.183594 C 245.300781 194.457031 243.691406 194.183594 242.128906 194.492188 C 241.089844 194.695312 239.992188 194.652344 238.929688 194.71875 C 236.382812 194.890625 233.839844 195.039062 231.304688 195.335938 C 229.410156 195.554688 227.503906 195.703125 225.609375 195.90625 C 225.480469 195.917969 225.378906 196.089844 225.265625 196.191406 C 225.390625 196.285156 225.539062 196.457031 225.640625 196.433594 C 227.480469 196.03125 229.339844 195.851562 231.488281 195.863281 Z M 231.488281 195.863281 " fill-opacity="1" fill-rule="nonzero"/></g><path fill="#ffffff" d="M 206.769531 186.191406 C 209.808594 185.175781 212.695312 184.160156 215.59375 183.15625 C 218.175781 182.265625 220.746094 181.328125 223.347656 180.554688 C 225.9375 179.777344 228.5625 179.148438 231.179688 178.464844 C 233.917969 177.746094 236.660156 177.015625 239.410156 176.339844 C 241.214844 175.894531 243.039062 175.574219 244.855469 175.140625 C 247.582031 174.492188 250.335938 173.988281 253.039062 173.246094 C 255.003906 172.710938 257.058594 172.503906 259.058594 172.105469 C 261.125 171.683594 263.179688 171.160156 265.257812 170.746094 C 266.921875 170.417969 268.613281 170.199219 270.292969 169.902344 C 272.207031 169.558594 274.125 169.136719 276.042969 168.816406 C 277.4375 168.578125 278.84375 168.476562 280.234375 168.246094 C 281.695312 168.007812 283.132812 167.675781 284.585938 167.4375 C 285.464844 167.289062 286.355469 167.289062 287.234375 167.140625 C 289.003906 166.832031 290.804688 166.820312 292.5625 166.351562 C 293.410156 166.125 294.3125 166.328125 295.210938 166.101562 C 296.320312 165.816406 297.519531 165.882812 298.671875 165.769531 C 299.277344 165.714844 299.882812 165.597656 300.488281 165.496094 C 301.046875 165.40625 301.675781 165.757812 302.175781 165.234375 C 302.222656 165.1875 302.359375 165.234375 302.449219 165.222656 C 303.890625 165.132812 305.351562 165.175781 306.742188 164.902344 C 308.089844 164.652344 309.496094 164.914062 310.808594 164.390625 C 310.886719 164.355469 310.988281 164.390625 311.082031 164.390625 C 312.792969 164.296875 314.507812 164.21875 316.207031 164.101562 C 316.996094 164.046875 317.78125 163.921875 318.582031 163.839844 C 319.324219 163.761719 320.113281 164.035156 320.820312 163.566406 C 320.886719 163.519531 321.003906 163.566406 321.09375 163.554688 C 322.851562 163.464844 324.609375 163.417969 326.355469 163.269531 C 327.53125 163.167969 328.683594 162.917969 329.859375 162.734375 C 330.089844 162.699219 330.351562 162.652344 330.546875 162.746094 C 330.832031 162.882812 331.046875 163.121094 331.300781 163.328125 C 331.070312 163.5 330.84375 163.785156 330.59375 163.816406 C 329.484375 163.953125 328.367188 163.976562 327.257812 164.125 C 324.996094 164.421875 322.726562 164.546875 320.453125 164.707031 C 318.320312 164.855469 316.195312 165.109375 314.0625 165.257812 C 311.925781 165.40625 309.804688 165.65625 307.667969 165.816406 C 305.957031 165.941406 304.21875 166.148438 302.519531 166.375 C 300.519531 166.636719 298.488281 166.671875 296.503906 167.128906 C 295.476562 167.367188 294.367188 167.300781 293.304688 167.4375 C 292.175781 167.585938 291.070312 167.8125 289.9375 167.972656 C 289.105469 168.097656 288.261719 168.132812 287.425781 168.257812 C 285.703125 168.519531 283.957031 168.660156 282.242188 169.058594 C 280.828125 169.378906 279.355469 169.410156 277.929688 169.652344 C 276.089844 169.960938 274.265625 170.347656 272.425781 170.679688 C 271.695312 170.816406 270.953125 170.882812 270.222656 171.019531 C 268.476562 171.351562 266.730469 171.707031 264.980469 172.046875 C 263.875 172.265625 262.757812 172.449219 261.660156 172.675781 C 259.628906 173.097656 257.609375 173.566406 255.574219 173.988281 C 254.046875 174.308594 252.503906 174.570312 250.972656 174.878906 C 249.660156 175.140625 248.347656 175.417969 247.035156 175.714844 C 245.484375 176.066406 243.929688 176.433594 242.390625 176.820312 C 239.136719 177.628906 235.90625 178.53125 232.628906 179.25 C 229.730469 179.878906 226.875 180.667969 224.042969 181.535156 C 219.808594 182.835938 215.574219 184.171875 211.40625 185.691406 C 208.609375 186.707031 205.800781 187.722656 202.992188 188.703125 C 201.394531 189.261719 199.828125 189.949219 198.277344 190.632812 C 197.613281 190.929688 197.03125 191.398438 196.394531 191.75 C 196.210938 191.855469 195.925781 191.898438 195.742188 191.832031 C 195.21875 191.613281 195.71875 191.179688 195.777344 191.136719 C 196.222656 190.734375 196.691406 190.324219 197.226562 190.085938 C 199.40625 189.125 201.609375 188.222656 203.800781 187.3125 C 204.726562 186.910156 205.6875 186.570312 206.769531 186.191406 Z M 206.769531 186.191406 " fill-opacity="1" fill-rule="nonzero"/><path fill="#ffffff" d="M 97.175781 182.058594 C 102.09375 182.058594 106.878906 182.027344 111.660156 182.070312 C 114.011719 182.09375 116.386719 182.09375 118.714844 182.390625 C 120.121094 182.574219 121.503906 182.515625 122.882812 182.609375 C 125.382812 182.777344 127.882812 182.949219 130.382812 183.167969 C 132.246094 183.328125 134.105469 183.488281 135.957031 183.726562 C 137.804688 183.964844 139.652344 184.21875 141.527344 184.285156 C 143.023438 184.355469 144.507812 184.605469 145.988281 184.824219 C 147.757812 185.074219 149.527344 185.394531 151.308594 185.632812 C 152.371094 185.78125 153.445312 185.792969 154.507812 185.929688 C 155.5 186.054688 156.480469 186.25 157.464844 186.445312 C 158.148438 186.582031 158.84375 186.523438 159.554688 186.695312 C 161.082031 187.058594 162.714844 187.039062 164.277344 187.324219 C 166.847656 187.789062 169.472656 187.917969 171.996094 188.679688 C 172.15625 188.726562 172.40625 188.679688 172.5 188.785156 C 172.648438 188.957031 172.808594 189.273438 172.738281 189.421875 C 172.660156 189.59375 172.304688 189.753906 172.109375 189.730469 C 170.558594 189.503906 169.015625 189.230469 167.464844 188.964844 C 165.363281 188.601562 163.261719 188.191406 161.164062 187.871094 C 159.496094 187.621094 157.816406 187.527344 156.152344 187.300781 C 154.460938 187.070312 152.792969 186.742188 151.105469 186.488281 C 150.269531 186.363281 149.4375 186.296875 148.59375 186.203125 C 146.640625 186.011719 144.6875 185.894531 142.746094 185.632812 C 140.945312 185.394531 139.128906 185.222656 137.324219 185.0625 C 135.613281 184.902344 133.898438 184.664062 132.175781 184.515625 C 129.769531 184.308594 127.359375 184.148438 124.960938 183.921875 C 123.75 183.808594 122.53125 183.886719 121.34375 183.691406 C 119.355469 183.371094 117.347656 183.660156 115.394531 183.371094 C 113.625 183.121094 111.878906 183.203125 110.121094 183.167969 C 104.503906 183.042969 98.863281 182.699219 93.269531 182.949219 C 87.414062 183.222656 81.554688 182.835938 75.722656 183.214844 C 72.628906 183.40625 69.523438 183.144531 66.453125 183.488281 C 64.226562 183.738281 61.988281 183.453125 59.808594 183.75 C 58.128906 183.976562 56.453125 183.773438 54.820312 184.023438 C 53.382812 184.242188 51.917969 184.070312 50.515625 184.308594 C 49.398438 184.503906 48.265625 184.367188 47.183594 184.558594 C 45.09375 184.925781 42.96875 184.84375 40.890625 185.324219 C 39.726562 185.585938 38.496094 185.53125 37.285156 185.632812 C 36.851562 185.667969 36.496094 185.472656 36.507812 185.097656 C 36.519531 184.890625 36.964844 184.570312 37.238281 184.546875 C 38.574219 184.398438 39.921875 184.390625 41.257812 184.242188 C 43.265625 184.011719 45.265625 183.703125 47.261719 183.429688 C 47.308594 183.417969 47.351562 183.429688 47.398438 183.429688 C 49.066406 183.339844 50.722656 183.222656 52.386719 183.15625 C 54.875 183.054688 57.398438 183.15625 59.855469 182.824219 C 62.082031 182.515625 64.316406 182.871094 66.511719 182.574219 C 70.015625 182.105469 73.53125 182.585938 77.023438 182.300781 C 83.679688 181.761719 90.359375 182.230469 97.175781 182.058594 Z M 97.175781 182.058594 " fill-opacity="1" fill-rule="nonzero"/><path fill="#ffffff" d="M 113.453125 175.425781 C 111.273438 175.246094 109.230469 175.132812 107.199219 174.855469 C 105.347656 174.605469 103.464844 174.546875 101.636719 174.25 C 100.050781 173.988281 98.417969 174.410156 96.886719 173.785156 C 96.808594 173.75 96.707031 173.785156 96.613281 173.785156 C 94.535156 173.691406 92.449219 173.714844 90.382812 173.476562 C 88.667969 173.269531 86.921875 173.453125 85.253906 173.179688 C 83.667969 172.917969 82.082031 173.179688 80.527344 172.9375 C 78.269531 172.585938 75.972656 172.9375 73.746094 172.632812 C 71.339844 172.300781 68.941406 172.503906 66.542969 172.414062 C 63.128906 172.289062 59.71875 172.039062 56.316406 172.1875 C 52.671875 172.335938 49.03125 172.335938 45.390625 172.4375 C 43.210938 172.492188 41.027344 172.769531 38.859375 172.972656 C 38.390625 173.019531 37.921875 173.179688 37.457031 173.222656 C 37.308594 173.234375 37.042969 173.066406 37.019531 172.9375 C 36.988281 172.789062 37.125 172.550781 37.25 172.425781 C 37.398438 172.289062 37.613281 172.175781 37.820312 172.152344 C 38.789062 172.039062 39.761719 171.933594 40.742188 171.867188 C 42.457031 171.75 44.191406 171.84375 45.867188 171.535156 C 47.546875 171.226562 49.203125 171.328125 50.871094 171.316406 C 57.078125 171.285156 63.289062 171.191406 69.5 171.351562 C 72.261719 171.421875 75.050781 171.375 77.800781 171.636719 C 79.617188 171.820312 81.429688 171.601562 83.210938 171.890625 C 84.84375 172.152344 86.476562 171.910156 88.0625 172.175781 C 89.421875 172.390625 90.757812 172.277344 92.09375 172.414062 C 94.640625 172.6875 97.183594 172.835938 99.730469 172.996094 C 101.730469 173.121094 103.703125 173.441406 105.714844 173.53125 C 107.710938 173.613281 109.710938 173.808594 111.695312 174.082031 C 113.363281 174.308594 115.050781 174.433594 116.707031 174.664062 C 118.660156 174.9375 120.65625 174.925781 122.585938 175.417969 C 123.523438 175.65625 124.527344 175.621094 125.496094 175.714844 C 126.71875 175.828125 127.929688 175.953125 129.140625 176.238281 C 129.90625 176.421875 130.703125 176.328125 131.515625 176.5 C 133.113281 176.84375 134.769531 176.867188 136.378906 177.117188 C 138.398438 177.425781 140.394531 177.871094 142.40625 178.203125 C 143.84375 178.441406 145.292969 178.53125 146.730469 178.773438 C 148.570312 179.082031 150.398438 179.480469 152.222656 179.824219 C 152.910156 179.949219 153.605469 180.015625 154.300781 180.140625 C 155.75 180.40625 157.199219 180.714844 158.652344 180.964844 C 159.953125 181.179688 161.265625 181.316406 162.554688 181.535156 C 163.664062 181.71875 164.769531 181.945312 165.878906 182.175781 C 166.597656 182.324219 167.316406 182.484375 168.035156 182.628906 C 168.171875 182.652344 168.355469 182.574219 168.445312 182.640625 C 168.71875 182.847656 169.199219 183.132812 169.175781 183.339844 C 169.132812 183.691406 168.695312 183.804688 168.285156 183.738281 C 167.074219 183.53125 165.867188 183.371094 164.667969 183.144531 C 163.386719 182.90625 162.132812 182.609375 160.855469 182.355469 C 158.980469 181.980469 157.121094 181.59375 155.238281 181.261719 C 153.949219 181.03125 152.625 180.917969 151.332031 180.691406 C 149.414062 180.359375 147.496094 179.9375 145.578125 179.605469 C 144.199219 179.367188 142.78125 179.261719 141.390625 179.035156 C 139.289062 178.691406 137.1875 178.292969 135.085938 177.9375 C 134.300781 177.8125 133.511719 177.746094 132.714844 177.652344 C 130.953125 177.472656 129.175781 177.355469 127.425781 177.082031 C 125.15625 176.730469 122.882812 176.410156 120.589844 176.261719 C 118.910156 176.148438 117.242188 175.917969 115.578125 175.722656 C 114.902344 175.632812 114.253906 175.519531 113.453125 175.425781 Z M 113.453125 175.425781 " fill-opacity="1" fill-rule="nonzero"/><path fill="#ffffff" d="M 42.785156 167.425781 C 40.296875 167.515625 37.921875 167.484375 35.59375 167.757812 C 34.382812 167.90625 33.1875 167.925781 31.976562 167.972656 C 31.703125 167.984375 31.449219 168.019531 31.449219 167.574219 C 31.449219 167.175781 31.632812 167.152344 31.941406 167.140625 C 33.335938 167.058594 34.75 167.117188 36.097656 166.832031 C 37.867188 166.464844 39.625 166.785156 41.371094 166.570312 C 45.878906 166.019531 50.402344 166.398438 54.921875 166.328125 C 59.476562 166.25 64.03125 166.160156 68.574219 166.375 C 71.214844 166.5 73.851562 166.398438 76.464844 166.660156 C 77.949219 166.808594 79.433594 166.773438 80.90625 166.878906 C 83.40625 167.046875 85.90625 167.21875 88.40625 167.4375 C 90.222656 167.585938 92.023438 167.769531 93.828125 167.996094 C 95.703125 168.234375 97.550781 168.554688 99.421875 168.808594 C 100.484375 168.945312 101.558594 168.964844 102.621094 169.101562 C 103.613281 169.230469 104.582031 169.457031 105.578125 169.628906 C 106.320312 169.753906 107.0625 169.835938 107.800781 169.925781 C 109.421875 170.121094 111.054688 170.246094 112.675781 170.496094 C 114.789062 170.816406 116.878906 171.25 118.980469 171.582031 C 120.507812 171.820312 122.050781 171.921875 123.578125 172.152344 C 124.949219 172.367188 126.296875 172.699219 127.667969 172.9375 C 128.441406 173.074219 129.242188 173.109375 130.03125 173.246094 C 131.445312 173.488281 132.851562 173.773438 134.265625 174.011719 C 135.042969 174.148438 135.828125 174.207031 136.617188 174.355469 C 138.410156 174.6875 140.191406 175.050781 141.984375 175.382812 C 143.183594 175.609375 144.390625 175.78125 145.589844 176.011719 C 147.246094 176.328125 148.890625 176.71875 150.546875 177.039062 C 151.789062 177.277344 153.046875 177.460938 154.289062 177.664062 C 154.425781 177.6875 154.597656 177.621094 154.699219 177.675781 C 155.042969 177.871094 155.351562 178.097656 155.683594 178.316406 C 155.363281 178.464844 155.03125 178.761719 154.710938 178.75 C 153.878906 178.714844 153.046875 178.589844 152.222656 178.441406 C 150.945312 178.214844 149.675781 177.925781 148.410156 177.664062 C 146.207031 177.207031 144.003906 176.742188 141.800781 176.308594 C 140.601562 176.078125 139.378906 175.941406 138.171875 175.722656 C 136.34375 175.382812 134.515625 174.984375 132.679688 174.652344 C 131.433594 174.421875 130.167969 174.273438 128.910156 174.070312 C 127.277344 173.808594 125.644531 173.5 124.015625 173.246094 C 122.574219 173.03125 121.125 172.90625 119.6875 172.675781 C 118.179688 172.4375 116.695312 172.117188 115.199219 171.867188 C 114.457031 171.742188 113.714844 171.671875 112.972656 171.582031 C 110.703125 171.308594 108.417969 171.03125 106.148438 170.746094 C 104.058594 170.484375 101.957031 170.246094 99.867188 169.902344 C 98.292969 169.640625 96.71875 169.503906 95.128906 169.332031 C 93.371094 169.136719 91.601562 168.945312 89.84375 168.785156 C 87.574219 168.566406 85.300781 168.417969 83.039062 168.203125 C 81.738281 168.074219 80.425781 168.191406 79.148438 167.972656 C 76.886719 167.597656 74.59375 167.972656 72.367188 167.664062 C 70.003906 167.34375 67.652344 167.472656 65.300781 167.460938 C 57.820312 167.390625 50.367188 167.425781 42.785156 167.425781 Z M 42.785156 167.425781 " fill-opacity="1" fill-rule="nonzero"/><path fill="#ffffff" d="M 278.007812 178.464844 C 280.964844 178.15625 283.785156 178.066406 286.605469 177.847656 C 288.089844 177.734375 289.585938 177.847656 291.046875 177.621094 C 293.304688 177.265625 295.601562 177.621094 297.828125 177.3125 C 300.234375 176.980469 302.632812 177.117188 305.03125 177.105469 C 313.867188 177.058594 322.691406 177.09375 331.527344 177.082031 C 332.976562 177.082031 334.40625 176.878906 335.773438 176.351562 C 335.992188 176.273438 336.265625 176.363281 336.515625 176.386719 C 336.460938 176.636719 336.472656 176.921875 336.347656 177.128906 C 335.878906 177.859375 335.023438 177.824219 334.335938 177.894531 C 329.597656 178.394531 324.839844 178.40625 320.113281 178.121094 C 316.320312 177.894531 312.53125 177.835938 308.777344 177.996094 C 305.089844 178.15625 301.390625 177.972656 297.714844 178.269531 C 295.714844 178.429688 293.71875 178.246094 291.753906 178.519531 C 290.121094 178.75 288.488281 178.542969 286.902344 178.808594 C 285.496094 179.035156 284.105469 178.886719 282.734375 179.058594 C 280.519531 179.320312 278.292969 179.515625 276.066406 179.605469 C 274.207031 179.6875 272.355469 179.949219 270.496094 180.140625 C 268.816406 180.3125 267.152344 180.507812 265.484375 180.691406 C 263.953125 180.863281 262.414062 181.019531 260.882812 181.25 C 259.332031 181.476562 257.800781 181.808594 256.261719 182.058594 C 255.472656 182.1875 254.683594 182.230469 253.898438 182.34375 C 252.207031 182.585938 250.507812 182.664062 248.851562 183.144531 C 248.050781 183.371094 247.183594 183.316406 246.351562 183.453125 C 244.890625 183.679688 243.429688 183.886719 241.988281 184.242188 C 240.769531 184.546875 239.476562 184.59375 238.222656 184.835938 C 236.441406 185.164062 234.671875 185.679688 232.878906 185.882812 C 231.691406 186.019531 230.539062 186.25 229.386719 186.488281 C 226.851562 187.027344 224.328125 187.585938 221.804688 188.179688 C 220.984375 188.371094 220.195312 188.726562 219.375 188.945312 C 219.167969 189 218.90625 188.828125 218.667969 188.773438 C 218.816406 188.554688 218.90625 188.269531 219.101562 188.132812 C 219.453125 187.90625 219.84375 187.6875 220.253906 187.597656 C 222.546875 187.027344 224.855469 186.488281 227.148438 185.929688 C 228.609375 185.574219 230.046875 185.132812 231.519531 184.84375 C 233.324219 184.503906 235.164062 184.308594 236.96875 183.988281 C 238.199219 183.773438 239.398438 183.394531 240.632812 183.191406 C 242.058594 182.949219 243.507812 182.8125 244.957031 182.621094 C 246.257812 182.449219 247.574219 182.277344 248.863281 182.058594 C 249.71875 181.921875 250.539062 181.636719 251.398438 181.523438 C 253.667969 181.214844 255.953125 181.011719 258.222656 180.667969 C 260.449219 180.335938 262.664062 179.960938 264.914062 179.8125 C 266.488281 179.695312 268.066406 179.421875 269.652344 179.273438 C 271.648438 179.082031 273.625 178.773438 275.632812 178.75 C 276.375 178.714844 277.117188 178.554688 278.007812 178.464844 Z M 278.007812 178.464844 " fill-opacity="1" fill-rule="nonzero"/><path fill="#ffffff" d="M 255.710938 187.367188 C 255.484375 187.484375 255.3125 187.5625 255.152344 187.574219 C 253.210938 187.675781 251.269531 187.722656 249.332031 187.871094 C 247.425781 188.007812 245.519531 188.179688 243.621094 188.429688 C 242.207031 188.625 240.8125 188.976562 239.410156 189.230469 C 239.191406 189.261719 238.894531 189.125 238.703125 188.976562 C 238.460938 188.796875 238.359375 188.53125 238.804688 188.417969 C 239.46875 188.234375 240.117188 187.996094 240.792969 187.882812 C 241.613281 187.734375 242.480469 187.757812 243.292969 187.574219 C 245.371094 187.128906 247.515625 187.300781 249.582031 186.761719 C 249.671875 186.742188 249.765625 186.761719 249.855469 186.761719 C 251.660156 186.671875 253.464844 186.648438 255.253906 186.476562 C 258.441406 186.167969 261.636719 186.066406 264.824219 185.863281 C 266.308594 185.769531 267.800781 185.828125 269.261719 185.644531 C 271.707031 185.335938 274.183594 185.609375 276.59375 185.324219 C 278.875 185.050781 281.136719 185.300781 283.386719 185.097656 C 288.363281 184.664062 293.351562 185.097656 298.316406 184.765625 C 301.652344 184.539062 304.972656 184.46875 308.285156 184.617188 C 313.777344 184.855469 319.253906 184.640625 324.734375 184.914062 C 327.234375 185.039062 329.746094 184.84375 332.214844 185.164062 C 334.4375 185.449219 336.652344 185.277344 338.867188 185.40625 C 339.1875 185.425781 339.507812 185.632812 339.816406 185.757812 C 339.484375 186 339.144531 186.464844 338.824219 186.453125 C 337.15625 186.386719 335.464844 186.785156 333.824219 186.226562 C 333.492188 186.113281 333.09375 186.214844 332.726562 186.214844 C 327.429688 186.125 322.121094 186.226562 316.835938 185.894531 C 309.78125 185.460938 302.734375 185.609375 295.691406 185.757812 C 291.820312 185.839844 287.929688 185.644531 284.082031 186 C 281.582031 186.226562 279.070312 185.953125 276.605469 186.261719 C 274.515625 186.523438 272.414062 186.238281 270.371094 186.546875 C 268.554688 186.820312 266.742188 186.535156 264.960938 186.808594 C 263.328125 187.058594 261.695312 186.832031 260.109375 187.09375 C 258.644531 187.3125 257.21875 187.230469 255.710938 187.367188 Z M 255.710938 187.367188 " fill-opacity="1" fill-rule="nonzero"/><path fill="#ffffff" d="M 302.300781 170.734375 C 301.742188 170.828125 301.320312 170.976562 300.898438 171 C 299.128906 171.089844 297.359375 171.226562 295.601562 171.546875 C 294.503906 171.742188 293.363281 171.648438 292.277344 171.867188 C 290.785156 172.175781 289.242188 172.128906 287.78125 172.640625 C 287.050781 172.90625 286.207031 172.835938 285.417969 172.949219 C 283.441406 173.234375 281.46875 173.511719 279.515625 174.023438 C 278.292969 174.34375 276.992188 174.367188 275.746094 174.617188 C 273.5 175.074219 271.214844 175.347656 268.988281 175.953125 C 267.402344 176.386719 265.722656 176.476562 264.101562 176.820312 C 261.785156 177.3125 259.492188 177.90625 257.183594 178.429688 C 256.589844 178.566406 255.988281 178.660156 255.382812 178.726562 C 255.152344 178.75 254.800781 178.875 254.808594 178.394531 C 254.808594 178.085938 254.84375 177.960938 255.234375 177.882812 C 256.144531 177.6875 257.023438 177.289062 257.9375 177.09375 C 260.644531 176.511719 263.371094 176 266.078125 175.417969 C 268.097656 174.984375 270.109375 174.457031 272.140625 174.058594 C 273.476562 173.796875 274.847656 173.714844 276.183594 173.476562 C 277.414062 173.257812 278.613281 172.894531 279.847656 172.675781 C 281.136719 172.4375 282.472656 172.378906 283.75 172.09375 C 285.1875 171.761719 286.695312 171.820312 288.113281 171.316406 C 288.75 171.089844 289.492188 171.261719 290.210938 171.054688 C 291.183594 170.78125 292.246094 170.863281 293.261719 170.722656 C 294.425781 170.574219 295.589844 170.347656 296.765625 170.1875 C 297.691406 170.0625 298.613281 169.972656 299.550781 169.914062 C 301.402344 169.800781 303.261719 169.84375 305.089844 169.59375 C 306.664062 169.378906 308.273438 169.570312 309.804688 169.308594 C 311.574219 169 313.332031 169.242188 315.078125 169.082031 C 318.992188 168.726562 322.910156 168.875 326.835938 168.785156 C 328.285156 168.75 329.722656 168.429688 331.164062 168.269531 C 331.390625 168.246094 331.632812 168.394531 331.871094 168.453125 C 331.789062 168.691406 331.78125 169.046875 331.621094 169.160156 C 331.277344 169.390625 330.84375 169.59375 330.445312 169.617188 C 327.726562 169.742188 324.996094 169.835938 322.28125 169.902344 C 320.898438 169.9375 319.519531 169.878906 318.136719 169.914062 C 315.464844 169.984375 312.769531 169.949219 310.109375 170.246094 C 308.617188 170.417969 307.132812 170.269531 305.671875 170.507812 C 304.5625 170.679688 303.511719 170.722656 302.300781 170.734375 Z M 302.300781 170.734375 " fill-opacity="1" fill-rule="nonzero"/><path fill="#ffffff" d="M 75.699219 176.601562 C 80.414062 176.535156 85.0625 176.535156 89.707031 176.535156 C 90.1875 176.535156 90.976562 176.363281 90.996094 176.921875 C 91.019531 177.515625 90.246094 177.34375 89.777344 177.355469 C 87.058594 177.449219 84.332031 177.574219 81.613281 177.632812 C 79.59375 177.675781 77.5625 177.515625 75.539062 177.664062 C 71.488281 177.949219 67.410156 177.734375 63.371094 177.984375 C 61.234375 178.121094 59.101562 177.949219 57 178.234375 C 55.457031 178.441406 53.929688 178.328125 52.421875 178.488281 C 50.378906 178.703125 48.347656 178.921875 46.304688 179.046875 C 44.429688 179.171875 42.570312 179.582031 40.707031 179.835938 C 40.253906 179.890625 39.785156 179.867188 39.328125 179.824219 C 39.179688 179.8125 38.960938 179.628906 38.917969 179.480469 C 38.824219 179.183594 38.9375 179.035156 39.328125 178.988281 C 40.410156 178.863281 41.472656 178.589844 42.546875 178.464844 C 44.578125 178.234375 46.644531 178.214844 48.65625 177.847656 C 49.738281 177.652344 50.8125 177.789062 51.851562 177.597656 C 53.519531 177.277344 55.207031 177.5625 56.839844 177.300781 C 58.746094 176.980469 60.640625 177.242188 62.527344 177.058594 C 66.761719 176.660156 71.007812 176.832031 75.242188 176.785156 C 75.402344 176.808594 75.515625 176.71875 75.699219 176.601562 Z M 75.699219 176.601562 " fill-opacity="1" fill-rule="nonzero"/><path fill="#ffffff" d="M 305.339844 160.519531 C 307.371094 160.425781 309.289062 160.507812 311.148438 160.199219 C 313.054688 159.878906 314.953125 160.152344 316.835938 159.960938 C 319.917969 159.640625 323.023438 159.539062 326.09375 159.753906 C 329.097656 159.972656 332.085938 159.9375 335.078125 159.960938 C 335.636719 159.960938 336.199219 159.71875 336.757812 159.71875 C 337.054688 159.71875 337.351562 160.003906 337.636719 160.152344 C 337.394531 160.371094 337.179688 160.746094 336.929688 160.769531 C 335.410156 160.917969 333.855469 161.191406 332.363281 161.03125 C 327.578125 160.53125 322.785156 160.816406 317.988281 160.863281 C 315.785156 160.882812 313.546875 160.894531 311.355469 161.136719 C 310.054688 161.285156 308.742188 161.148438 307.472656 161.375 C 305.304688 161.761719 303.066406 161.601562 300.910156 162.152344 C 299.972656 162.390625 298.957031 162.3125 298 162.460938 C 296.628906 162.675781 295.28125 163.007812 293.910156 163.234375 C 291.652344 163.601562 289.449219 164.125 287.277344 164.878906 C 287.105469 164.9375 286.84375 164.695312 286.617188 164.59375 C 286.742188 164.34375 286.800781 163.933594 286.992188 163.863281 C 287.917969 163.53125 288.855469 163.234375 289.8125 163.019531 C 291.535156 162.621094 293.273438 162.253906 295.007812 161.910156 C 296.492188 161.613281 297.988281 161.328125 299.492188 161.089844 C 300.363281 160.953125 301.253906 160.894531 302.132812 160.804688 C 303.160156 160.703125 304.175781 160.609375 305.339844 160.519531 Z M 305.339844 160.519531 " fill-opacity="1" fill-rule="nonzero"/><path fill="#ffffff" d="M 47.195312 163.007812 C 50.46875 162.917969 53.621094 163.007812 56.738281 162.675781 C 59.238281 162.402344 61.75 162.722656 64.214844 162.414062 C 66.53125 162.117188 68.863281 162.425781 71.132812 162.128906 C 72.902344 161.890625 74.648438 161.992188 76.40625 161.921875 C 76.601562 161.910156 76.808594 162.117188 77.011719 162.21875 C 76.832031 162.390625 76.671875 162.675781 76.453125 162.722656 C 75.722656 162.871094 74.96875 162.984375 74.226562 163.007812 C 70.859375 163.121094 67.480469 163.007812 64.136719 163.363281 C 61.667969 163.613281 59.214844 163.316406 56.792969 163.613281 C 54.25 163.933594 51.691406 163.625 49.179688 163.910156 C 47.636719 164.082031 46.109375 163.976562 44.601562 164.136719 C 41.964844 164.421875 39.328125 164.570312 36.691406 164.71875 C 34.648438 164.835938 32.625 165.246094 30.570312 165.234375 C 30.433594 165.234375 30.25 165.210938 30.183594 165.289062 C 29.703125 165.792969 29.351562 165.382812 29.292969 165.039062 C 29.222656 164.582031 29.636719 164.433594 30.101562 164.398438 C 32.328125 164.242188 34.566406 164.113281 36.769531 163.839844 C 39.085938 163.554688 41.394531 163.328125 43.722656 163.292969 C 44.839844 163.257812 45.949219 163.097656 47.195312 163.007812 Z M 47.195312 163.007812 " fill-opacity="1" fill-rule="nonzero"/><g fill="#ffffff" fill-opacity="1"><g transform="translate(97.92037, 267.552409)"><g><path d="M 18.40625 0.628906 C 24.269531 0.628906 31.519531 -4.160156 33.03125 -9.015625 L 32.84375 -9.015625 C 31.519531 -4.726562 24.519531 -0.503906 18.785156 -0.503906 C 12.734375 -0.503906 6.808594 -8.953125 6.808594 -17.585938 C 6.808594 -19.667969 7.058594 -21.558594 7.5 -23.324219 L 33.976562 -23.324219 C 33.285156 -30.382812 26.476562 -34.921875 19.984375 -34.921875 C 11.347656 -34.921875 2.835938 -27.484375 2.835938 -16.074219 C 2.835938 -7.628906 10.527344 0.628906 18.40625 0.628906 Z M 7.566406 -23.574219 C 9.519531 -30.445312 14.6875 -34.671875 19.917969 -34.671875 C 24.269531 -34.671875 28.933594 -30.320312 29.753906 -23.640625 Z M 7.566406 -23.574219 "/></g></g><g transform="translate(133.788496, 267.552409)"><g><path d="M 37.253906 0.0625 L 38.136719 0.0625 L 38.453125 -46.648438 C 38.453125 -48.222656 39.398438 -49.800781 40.28125 -49.800781 L 40.660156 -49.800781 L 40.660156 -49.988281 L 37.128906 -49.988281 L 37.128906 -46.648438 L 37.253906 -8.195312 L 36.6875 -9.015625 L 7.816406 -49.988281 L 0.1875 -49.988281 L 0.1875 -49.800781 C 1.574219 -49.800781 3.277344 -48.476562 4.601562 -46.648438 L 5.671875 -45.132812 L 5.609375 -3.277344 C 5.609375 -1.703125 4.726562 -0.125 3.78125 -0.125 L 3.402344 -0.125 L 3.402344 0 L 9.203125 0 L 9.203125 -0.1875 L 8.824219 -0.1875 C 7.878906 -0.1875 6.996094 -1.765625 6.996094 -3.339844 L 6.871094 -43.496094 C 17.019531 -28.996094 27.105469 -14.433594 37.253906 0.0625 Z M 37.253906 0.0625 "/></g></g><g transform="translate(178.166635, 267.552409)"><g><path d="M 19.984375 0.628906 C 28.617188 0.628906 37.066406 -8.195312 37.066406 -17.144531 C 37.066406 -26.097656 28.617188 -34.921875 19.984375 -34.921875 C 11.347656 -34.921875 2.835938 -26.097656 2.835938 -17.144531 C 2.835938 -8.195312 11.347656 0.628906 19.984375 0.628906 Z M 19.984375 0.253906 C 13.425781 0.253906 6.996094 -8.382812 6.996094 -17.144531 C 6.996094 -25.910156 13.425781 -34.542969 19.984375 -34.542969 C 26.539062 -34.542969 32.90625 -25.910156 32.90625 -17.144531 C 32.90625 -8.382812 26.539062 0.253906 19.984375 0.253906 Z M 19.984375 0.253906 "/></g></g></g><g fill="#ffffff" fill-opacity="1"><g transform="translate(218.069138, 267.552409)"><g><path d="M 14.371094 0.628906 C 16.957031 0.628906 20.992188 -2.269531 22.503906 -5.230469 L 22.0625 -5.484375 C 20.992188 -3.339844 17.714844 -1.199219 15.507812 -1.199219 C 12.671875 -1.199219 9.898438 -4.097656 9.898438 -8.636719 L 10.023438 -32.273438 L 20.488281 -32.273438 L 20.488281 -34.292969 L 10.023438 -34.292969 L 10.023438 -42.550781 L 9.707031 -42.550781 L 2.082031 -33.472656 L 2.082031 -32.84375 L 6.175781 -32.84375 L 6.175781 -9.457031 C 6.175781 -3.339844 10.210938 0.628906 14.371094 0.628906 Z M 14.371094 0.628906 "/></g></g></g><g fill="#ffffff" fill-opacity="1"><g transform="translate(241.203764, 267.552409)"><g><path d="M 18.40625 0.628906 C 24.269531 0.628906 31.519531 -4.160156 33.03125 -9.015625 L 32.84375 -9.015625 C 31.519531 -4.726562 24.519531 -0.503906 18.785156 -0.503906 C 12.734375 -0.503906 6.808594 -8.953125 6.808594 -17.585938 C 6.808594 -19.667969 7.058594 -21.558594 7.5 -23.324219 L 33.976562 -23.324219 C 33.285156 -30.382812 26.476562 -34.921875 19.984375 -34.921875 C 11.347656 -34.921875 2.835938 -27.484375 2.835938 -16.074219 C 2.835938 -7.628906 10.527344 0.628906 18.40625 0.628906 Z M 7.566406 -23.574219 C 9.519531 -30.445312 14.6875 -34.671875 19.917969 -34.671875 C 24.269531 -34.671875 28.933594 -30.320312 29.753906 -23.640625 Z M 7.566406 -23.574219 "/></g></g></g></svg>